<svg xmlns="http://www.w3.org/2000/svg" xmlns:xlink="http://www.w3.org/1999/xlink" width="1024" zoomAndPan="magnify" viewBox="0 0 768 767.999994" height="1024" preserveAspectRatio="xMidYMid meet" version="1.0"><defs><clipPath id="ca17f8b561"><path d="M 302 235.007812 L 314 235.007812 L 314 265 L 302 265 Z M 302 235.007812 " clip-rule="nonzero"/></clipPath><clipPath id="a6efa72b1c"><path d="M 340 235.007812 L 352 235.007812 L 352 265 L 340 265 Z M 340 235.007812 " clip-rule="nonzero"/></clipPath><clipPath id="7484190926"><path d="M 378 235.007812 L 390 235.007812 L 390 265 L 378 265 Z M 378 235.007812 " clip-rule="nonzero"/></clipPath><clipPath id="334425c1f2"><path d="M 416 235.007812 L 428 235.007812 L 428 265 L 416 265 Z M 416 235.007812 " clip-rule="nonzero"/></clipPath><clipPath id="dd22216ef5"><path d="M 454 235.007812 L 466 235.007812 L 466 265 L 454 265 Z M 454 235.007812 " clip-rule="nonzero"/></clipPath><clipPath id="6f076aca5e"><path d="M 508 296 L 537.898438 296 L 537.898438 308 L 508 308 Z M 508 296 " clip-rule="nonzero"/></clipPath><clipPath id="397aec53ed"><path d="M 508 334 L 537.898438 334 L 537.898438 346 L 508 346 Z M 508 334 " clip-rule="nonzero"/></clipPath><clipPath id="a61e758038"><path d="M 508 372 L 537.898438 372 L 537.898438 384 L 508 384 Z M 508 372 " clip-rule="nonzero"/></clipPath><clipPath id="61ad868a52"><path d="M 508 410 L 537.898438 410 L 537.898438 422 L 508 422 Z M 508 410 " clip-rule="nonzero"/></clipPath><clipPath id="46e5b3dd79"><path d="M 508 448 L 537.898438 448 L 537.898438 460 L 508 460 Z M 508 448 " clip-rule="nonzero"/></clipPath><clipPath id="ab14384605"><path d="M 230.398438 296 L 260 296 L 260 308 L 230.398438 308 Z M 230.398438 296 " clip-rule="nonzero"/></clipPath><clipPath id="0f2d2b30c6"><path d="M 230.398438 334 L 260 334 L 260 346 L 230.398438 346 Z M 230.398438 334 " clip-rule="nonzero"/></clipPath><clipPath id="2469fbb48b"><path d="M 230.398438 372 L 260 372 L 260 384 L 230.398438 384 Z M 230.398438 372 " clip-rule="nonzero"/></clipPath><clipPath id="11388963d4"><path d="M 230.398438 410 L 260 410 L 260 422 L 230.398438 422 Z M 230.398438 410 " clip-rule="nonzero"/></clipPath><clipPath id="38d50846d8"><path d="M 230.398438 448 L 260 448 L 260 460 L 230.398438 460 Z M 230.398438 448 " clip-rule="nonzero"/></clipPath><clipPath id="d07b71b138"><path d="M 302 503 L 314 503 L 314 532.757812 L 302 532.757812 Z M 302 503 " clip-rule="nonzero"/></clipPath><clipPath id="3d3ba3ce9e"><path d="M 340 503 L 352 503 L 352 532.757812 L 340 532.757812 Z M 340 503 " clip-rule="nonzero"/></clipPath><clipPath id="58b1587288"><path d="M 378 503 L 390 503 L 390 532.757812 L 378 532.757812 Z M 378 503 " clip-rule="nonzero"/></clipPath><clipPath id="5b4ae777a7"><path d="M 416 503 L 428 503 L 428 532.757812 L 416 532.757812 Z M 416 503 " clip-rule="nonzero"/></clipPath><clipPath id="9823529fb1"><path d="M 454 503 L 466 503 L 466 532.757812 L 454 532.757812 Z M 454 503 " clip-rule="nonzero"/></clipPath></defs><path fill="#ffffff" d="M 458.902344 491.757812 L 309.523438 491.757812 C 291.304688 491.757812 276.425781 476.925781 276.425781 458.660156 L 276.425781 309.28125 C 276.425781 291.0625 291.257812 276.230469 309.523438 276.230469 L 458.902344 276.230469 C 477.121094 276.230469 491.953125 291.0625 491.953125 309.28125 L 491.953125 458.660156 C 491.953125 476.925781 477.121094 491.757812 458.902344 491.757812 Z M 309.523438 287.105469 C 297.3125 287.105469 287.347656 297.074219 287.347656 309.28125 L 287.347656 458.660156 C 287.347656 470.867188 297.3125 480.835938 309.523438 480.835938 L 458.902344 480.835938 C 471.109375 480.835938 481.078125 470.867188 481.078125 458.660156 L 481.078125 309.28125 C 481.078125 297.074219 471.109375 287.105469 458.902344 287.105469 Z M 309.523438 287.105469 " fill-opacity="1" fill-rule="nonzero"/><path fill="#ffffff" d="M 405.867188 425.65625 L 385.644531 425.65625 L 380.539062 411.539062 L 344.816406 411.539062 L 339.570312 425.65625 L 319.347656 425.65625 L 351.542969 342.285156 L 373.765625 342.285156 Z M 375.628906 395.941406 L 362.605469 360.074219 L 349.632812 395.941406 Z M 375.628906 395.941406 " fill-opacity="1" fill-rule="nonzero"/><path fill="#ffffff" d="M 413.640625 342.285156 L 431.382812 342.285156 L 431.382812 425.65625 L 413.640625 425.65625 Z M 413.640625 342.285156 " fill-opacity="1" fill-rule="nonzero"/><g clip-path="url(#ca17f8b561)"><path fill="#ffffff" d="M 307.664062 264.59375 C 304.660156 264.59375 302.226562 262.160156 302.226562 259.15625 L 302.226562 240.554688 C 302.226562 237.550781 304.660156 235.117188 307.664062 235.117188 C 310.667969 235.117188 313.101562 237.550781 313.101562 240.554688 L 313.101562 259.15625 C 313.101562 262.160156 310.667969 264.59375 307.664062 264.59375 Z M 307.664062 264.59375 " fill-opacity="1" fill-rule="nonzero"/></g><g clip-path="url(#a6efa72b1c)"><path fill="#ffffff" d="M 345.628906 264.59375 C 342.625 264.59375 340.191406 262.160156 340.191406 259.15625 L 340.191406 240.554688 C 340.191406 237.550781 342.625 235.117188 345.628906 235.117188 C 348.632812 235.117188 351.066406 237.550781 351.066406 240.554688 L 351.066406 259.15625 C 351.066406 262.160156 348.632812 264.59375 345.628906 264.59375 Z M 345.628906 264.59375 " fill-opacity="1" fill-rule="nonzero"/></g><g clip-path="url(#7484190926)"><path fill="#ffffff" d="M 383.59375 264.59375 C 380.585938 264.59375 378.15625 262.160156 378.15625 259.15625 L 378.15625 240.554688 C 378.15625 237.550781 380.585938 235.117188 383.59375 235.117188 C 386.597656 235.117188 389.03125 237.550781 389.03125 240.554688 L 389.03125 259.15625 C 389.078125 262.160156 386.597656 264.59375 383.59375 264.59375 Z M 383.59375 264.59375 " fill-opacity="1" fill-rule="nonzero"/></g><g clip-path="url(#334425c1f2)"><path fill="#ffffff" d="M 421.605469 264.59375 C 418.597656 264.59375 416.167969 262.160156 416.167969 259.15625 L 416.167969 240.554688 C 416.167969 237.550781 418.597656 235.117188 421.605469 235.117188 C 424.609375 235.117188 427.042969 237.550781 427.042969 240.554688 L 427.042969 259.15625 C 427.042969 262.160156 424.609375 264.59375 421.605469 264.59375 Z M 421.605469 264.59375 " fill-opacity="1" fill-rule="nonzero"/></g><g clip-path="url(#dd22216ef5)"><path fill="#ffffff" d="M 459.570312 264.59375 C 456.5625 264.59375 454.132812 262.160156 454.132812 259.15625 L 454.132812 240.554688 C 454.132812 237.550781 456.5625 235.117188 459.570312 235.117188 C 462.574219 235.117188 465.003906 237.550781 465.003906 240.554688 L 465.003906 259.15625 C 465.003906 262.160156 462.574219 264.59375 459.570312 264.59375 Z M 459.570312 264.59375 " fill-opacity="1" fill-rule="nonzero"/></g><g clip-path="url(#6f076aca5e)"><path fill="#ffffff" d="M 532.109375 307.46875 L 513.511719 307.46875 C 510.503906 307.46875 508.074219 305.039062 508.074219 302.03125 C 508.074219 299.027344 510.503906 296.59375 513.511719 296.59375 L 532.109375 296.59375 C 535.117188 296.59375 537.546875 299.027344 537.546875 302.03125 C 537.546875 305.039062 535.117188 307.46875 532.109375 307.46875 Z M 532.109375 307.46875 " fill-opacity="1" fill-rule="nonzero"/></g><g clip-path="url(#397aec53ed)"><path fill="#ffffff" d="M 532.109375 345.433594 L 513.511719 345.433594 C 510.503906 345.433594 508.074219 343 508.074219 339.996094 C 508.074219 336.992188 510.503906 334.558594 513.511719 334.558594 L 532.109375 334.558594 C 535.117188 334.558594 537.546875 336.992188 537.546875 339.996094 C 537.59375 343 535.117188 345.433594 532.109375 345.433594 Z M 532.109375 345.433594 " fill-opacity="1" fill-rule="nonzero"/></g><g clip-path="url(#a61e758038)"><path fill="#ffffff" d="M 532.109375 383.445312 L 513.511719 383.445312 C 510.503906 383.445312 508.074219 381.011719 508.074219 378.007812 C 508.074219 375.003906 510.503906 372.570312 513.511719 372.570312 L 532.109375 372.570312 C 535.117188 372.570312 537.546875 375.003906 537.546875 378.007812 C 537.59375 381.011719 535.117188 383.445312 532.109375 383.445312 Z M 532.109375 383.445312 " fill-opacity="1" fill-rule="nonzero"/></g><g clip-path="url(#61ad868a52)"><path fill="#ffffff" d="M 532.109375 421.410156 L 513.511719 421.410156 C 510.503906 421.410156 508.074219 418.976562 508.074219 415.972656 C 508.074219 412.96875 510.503906 410.535156 513.511719 410.535156 L 532.109375 410.535156 C 535.117188 410.535156 537.546875 412.96875 537.546875 415.972656 C 537.59375 418.976562 535.117188 421.410156 532.109375 421.410156 Z M 532.109375 421.410156 " fill-opacity="1" fill-rule="nonzero"/></g><g clip-path="url(#46e5b3dd79)"><path fill="#ffffff" d="M 532.109375 459.421875 L 513.511719 459.421875 C 510.503906 459.421875 508.074219 456.988281 508.074219 453.984375 C 508.074219 450.980469 510.503906 448.546875 513.511719 448.546875 L 532.109375 448.546875 C 535.117188 448.546875 537.546875 450.980469 537.546875 453.984375 C 537.59375 456.941406 535.117188 459.421875 532.109375 459.421875 Z M 532.109375 459.421875 " fill-opacity="1" fill-rule="nonzero"/></g><g clip-path="url(#ab14384605)"><path fill="#ffffff" d="M 254.4375 307.46875 L 235.835938 307.46875 C 232.832031 307.46875 230.398438 305.039062 230.398438 302.03125 C 230.398438 299.027344 232.832031 296.59375 235.835938 296.59375 L 254.4375 296.59375 C 257.441406 296.59375 259.875 299.027344 259.875 302.03125 C 259.875 305.039062 257.441406 307.46875 254.4375 307.46875 Z M 254.4375 307.46875 " fill-opacity="1" fill-rule="nonzero"/></g><g clip-path="url(#0f2d2b30c6)"><path fill="#ffffff" d="M 254.4375 345.433594 L 235.835938 345.433594 C 232.832031 345.433594 230.398438 343 230.398438 339.996094 C 230.398438 336.992188 232.832031 334.558594 235.835938 334.558594 L 254.4375 334.558594 C 257.441406 334.558594 259.875 336.992188 259.875 339.996094 C 259.875 343 257.441406 345.433594 254.4375 345.433594 Z M 254.4375 345.433594 " fill-opacity="1" fill-rule="nonzero"/></g><g clip-path="url(#2469fbb48b)"><path fill="#ffffff" d="M 254.4375 383.445312 L 235.835938 383.445312 C 232.832031 383.445312 230.398438 381.011719 230.398438 378.007812 C 230.398438 375.003906 232.832031 372.570312 235.835938 372.570312 L 254.4375 372.570312 C 257.441406 372.570312 259.875 375.003906 259.875 378.007812 C 259.875 381.011719 257.441406 383.445312 254.4375 383.445312 Z M 254.4375 383.445312 " fill-opacity="1" fill-rule="nonzero"/></g><g clip-path="url(#11388963d4)"><path fill="#ffffff" d="M 254.4375 421.410156 L 235.835938 421.410156 C 232.832031 421.410156 230.398438 418.976562 230.398438 415.972656 C 230.398438 412.96875 232.832031 410.535156 235.835938 410.535156 L 254.4375 410.535156 C 257.441406 410.535156 259.875 412.96875 259.875 415.972656 C 259.875 418.976562 257.441406 421.410156 254.4375 421.410156 Z M 254.4375 421.410156 " fill-opacity="1" fill-rule="nonzero"/></g><g clip-path="url(#38d50846d8)"><path fill="#ffffff" d="M 254.4375 459.421875 L 235.835938 459.421875 C 232.832031 459.421875 230.398438 456.988281 230.398438 453.984375 C 230.398438 450.980469 232.832031 448.546875 235.835938 448.546875 L 254.4375 448.546875 C 257.441406 448.546875 259.875 450.980469 259.875 453.984375 C 259.875 456.941406 257.441406 459.421875 254.4375 459.421875 Z M 254.4375 459.421875 " fill-opacity="1" fill-rule="nonzero"/></g><g clip-path="url(#d07b71b138)"><path fill="#ffffff" d="M 307.664062 532.871094 C 304.660156 532.871094 302.226562 530.4375 302.226562 527.433594 L 302.226562 508.832031 C 302.226562 505.828125 304.660156 503.394531 307.664062 503.394531 C 310.667969 503.394531 313.101562 505.828125 313.101562 508.832031 L 313.101562 527.433594 C 313.101562 530.4375 310.667969 532.871094 307.664062 532.871094 Z M 307.664062 532.871094 " fill-opacity="1" fill-rule="nonzero"/></g><g clip-path="url(#3d3ba3ce9e)"><path fill="#ffffff" d="M 345.628906 532.871094 C 342.625 532.871094 340.191406 530.4375 340.191406 527.433594 L 340.191406 508.832031 C 340.191406 505.828125 342.625 503.394531 345.628906 503.394531 C 348.632812 503.394531 351.066406 505.828125 351.066406 508.832031 L 351.066406 527.433594 C 351.066406 530.4375 348.632812 532.871094 345.628906 532.871094 Z M 345.628906 532.871094 " fill-opacity="1" fill-rule="nonzero"/></g><g clip-path="url(#58b1587288)"><path fill="#ffffff" d="M 383.59375 532.871094 C 380.585938 532.871094 378.15625 530.4375 378.15625 527.433594 L 378.15625 508.832031 C 378.15625 505.828125 380.585938 503.394531 383.59375 503.394531 C 386.597656 503.394531 389.03125 505.828125 389.03125 508.832031 L 389.03125 527.433594 C 389.078125 530.4375 386.597656 532.871094 383.59375 532.871094 Z M 383.59375 532.871094 " fill-opacity="1" fill-rule="nonzero"/></g><g clip-path="url(#5b4ae777a7)"><path fill="#ffffff" d="M 421.605469 532.871094 C 418.597656 532.871094 416.167969 530.4375 416.167969 527.433594 L 416.167969 508.832031 C 416.167969 505.828125 418.597656 503.394531 421.605469 503.394531 C 424.609375 503.394531 427.042969 505.828125 427.042969 508.832031 L 427.042969 527.433594 C 427.042969 530.4375 424.609375 532.871094 421.605469 532.871094 Z M 421.605469 532.871094 " fill-opacity="1" fill-rule="nonzero"/></g><g clip-path="url(#9823529fb1)"><path fill="#ffffff" d="M 459.570312 532.871094 C 456.5625 532.871094 454.132812 530.4375 454.132812 527.433594 L 454.132812 508.832031 C 454.132812 505.828125 456.5625 503.394531 459.570312 503.394531 C 462.574219 503.394531 465.003906 505.828125 465.003906 508.832031 L 465.003906 527.433594 C 465.003906 530.4375 462.574219 532.871094 459.570312 532.871094 Z M 459.570312 532.871094 " fill-opacity="1" fill-rule="nonzero"/></g></svg>