<svg xmlns="http://www.w3.org/2000/svg" xmlns:xlink="http://www.w3.org/1999/xlink" width="1024" zoomAndPan="magnify" viewBox="0 0 768 767.999994" height="1024" preserveAspectRatio="xMidYMid meet" version="1.0"><path fill="#ffffff" d="M 362.886719 318.480469 L 406.5625 274.804688 C 406.5625 274.804688 450.242188 231.128906 493.917969 274.804688 C 537.59375 318.480469 493.917969 362.160156 493.917969 362.160156 L 435.683594 420.394531 C 435.683594 420.394531 392.003906 464.070312 348.328125 420.394531 C 340.136719 412.207031 335.066406 401.324219 335.066406 401.324219 L 359.472656 376.949219 C 359.472656 376.949219 358.492188 386.878906 370.167969 398.558594 C 370.167969 398.558594 392.003906 420.394531 413.84375 398.558594 L 472.078125 340.320312 C 472.078125 340.320312 493.917969 318.480469 472.078125 296.644531 C 450.242188 274.804688 428.402344 296.644531 428.402344 296.644531 L 401.257812 323.789062 C 401.257812 323.789062 387.761719 312.714844 360.15625 321.210938 Z M 362.886719 318.480469 " fill-opacity="1" fill-rule="nonzero"/><path fill="#ffffff" d="M 405.4375 449.511719 L 361.757812 493.191406 C 361.757812 493.191406 318.082031 536.867188 274.40625 493.191406 C 230.726562 449.511719 274.40625 405.835938 274.40625 405.835938 L 332.640625 347.601562 C 332.640625 347.601562 376.316406 303.921875 419.996094 347.601562 C 428.183594 355.789062 433.257812 366.671875 433.257812 366.671875 L 408.84375 391.050781 C 408.84375 391.050781 409.824219 381.113281 398.148438 369.4375 C 398.148438 369.4375 376.308594 347.601562 354.472656 369.4375 L 296.234375 427.675781 C 296.234375 427.675781 274.398438 449.511719 296.234375 471.351562 C 318.074219 493.191406 339.914062 471.351562 339.914062 471.351562 L 367.058594 444.207031 C 367.058594 444.207031 380.554688 455.277344 408.160156 446.785156 Z M 405.4375 449.511719 " fill-opacity="1" fill-rule="nonzero"/></svg>