<svg xmlns="http://www.w3.org/2000/svg" xmlns:xlink="http://www.w3.org/1999/xlink" width="1024" zoomAndPan="magnify" viewBox="0 0 768 767.999994" height="1024" preserveAspectRatio="xMidYMid meet" version="1.0"><defs><clipPath id="2123826ce7"><path d="M 507 366 L 537.898438 366 L 537.898438 397 L 507 397 Z M 507 366 " clip-rule="nonzero"/></clipPath><clipPath id="d3c866a13e"><path d="M 507 231 L 537.898438 231 L 537.898438 262 L 507 262 Z M 507 231 " clip-rule="nonzero"/></clipPath><clipPath id="b7a68cf1d2"><path d="M 507 502 L 537.898438 502 L 537.898438 533 L 507 533 Z M 507 502 " clip-rule="nonzero"/></clipPath></defs><path fill="#ffffff" d="M 251.363281 261.191406 C 252.355469 261.191406 253.332031 261.09375 254.304688 260.902344 C 255.273438 260.707031 256.214844 260.421875 257.128906 260.042969 C 258.042969 259.664062 258.914062 259.199219 259.734375 258.652344 C 260.558594 258.101562 261.316406 257.476562 262.015625 256.777344 C 262.71875 256.078125 263.339844 255.316406 263.890625 254.496094 C 264.441406 253.671875 264.90625 252.804688 265.28125 251.890625 C 265.660156 250.976562 265.949219 250.035156 266.140625 249.066406 C 266.332031 248.09375 266.429688 247.113281 266.429688 246.125 C 266.429688 245.136719 266.332031 244.15625 266.140625 243.1875 C 265.949219 242.214844 265.660156 241.273438 265.28125 240.359375 C 264.90625 239.445312 264.441406 238.578125 263.890625 237.757812 C 263.339844 236.933594 262.71875 236.171875 262.015625 235.472656 C 261.316406 234.773438 260.558594 234.148438 259.734375 233.601562 C 258.914062 233.050781 258.042969 232.585938 257.128906 232.207031 C 256.214844 231.828125 255.273438 231.542969 254.304688 231.351562 C 253.332031 231.15625 252.355469 231.0625 251.363281 231.0625 C 250.375 231.0625 249.394531 231.15625 248.425781 231.351562 C 247.457031 231.542969 246.515625 231.828125 245.601562 232.207031 C 244.6875 232.585938 243.816406 233.050781 242.996094 233.601562 C 242.171875 234.148438 241.414062 234.773438 240.710938 235.472656 C 240.011719 236.171875 239.390625 236.933594 238.839844 237.757812 C 238.289062 238.578125 237.824219 239.445312 237.445312 240.359375 C 237.070312 241.273438 236.78125 242.214844 236.589844 243.1875 C 236.398438 244.15625 236.300781 245.136719 236.300781 246.125 C 236.300781 247.113281 236.398438 248.09375 236.589844 249.066406 C 236.78125 250.035156 237.070312 250.976562 237.445312 251.890625 C 237.824219 252.804688 238.289062 253.671875 238.839844 254.496094 C 239.390625 255.316406 240.011719 256.078125 240.710938 256.777344 C 241.414062 257.476562 242.171875 258.101562 242.996094 258.652344 C 243.816406 259.199219 244.6875 259.664062 245.601562 260.042969 C 246.515625 260.421875 247.457031 260.707031 248.425781 260.902344 C 249.394531 261.09375 250.375 261.191406 251.363281 261.191406 Z M 251.363281 241.105469 C 251.695312 241.105469 252.019531 241.136719 252.34375 241.199219 C 252.667969 241.265625 252.980469 241.359375 253.285156 241.488281 C 253.589844 241.613281 253.878906 241.765625 254.15625 241.949219 C 254.429688 242.132812 254.683594 242.339844 254.914062 242.574219 C 255.148438 242.808594 255.355469 243.0625 255.539062 243.335938 C 255.722656 243.609375 255.878906 243.898438 256.003906 244.203125 C 256.128906 244.507812 256.226562 244.824219 256.289062 245.144531 C 256.355469 245.46875 256.386719 245.796875 256.386719 246.125 C 256.386719 246.457031 256.355469 246.78125 256.289062 247.105469 C 256.226562 247.429688 256.128906 247.742188 256.003906 248.046875 C 255.878906 248.351562 255.722656 248.640625 255.539062 248.914062 C 255.355469 249.191406 255.148438 249.445312 254.914062 249.675781 C 254.683594 249.910156 254.429688 250.117188 254.15625 250.300781 C 253.878906 250.484375 253.589844 250.640625 253.285156 250.765625 C 252.980469 250.890625 252.667969 250.988281 252.34375 251.050781 C 252.019531 251.113281 251.695312 251.148438 251.363281 251.148438 C 251.035156 251.148438 250.707031 251.113281 250.386719 251.050781 C 250.0625 250.988281 249.75 250.890625 249.445312 250.765625 C 249.140625 250.640625 248.847656 250.484375 248.574219 250.300781 C 248.300781 250.117188 248.046875 249.910156 247.8125 249.675781 C 247.582031 249.445312 247.371094 249.191406 247.191406 248.914062 C 247.007812 248.640625 246.851562 248.351562 246.726562 248.046875 C 246.597656 247.742188 246.503906 247.429688 246.441406 247.105469 C 246.375 246.78125 246.34375 246.457031 246.34375 246.125 C 246.34375 245.796875 246.375 245.46875 246.441406 245.144531 C 246.503906 244.824219 246.597656 244.507812 246.726562 244.203125 C 246.851562 243.898438 247.007812 243.609375 247.191406 243.335938 C 247.371094 243.0625 247.582031 242.808594 247.8125 242.574219 C 248.046875 242.34375 248.300781 242.132812 248.574219 241.949219 C 248.847656 241.765625 249.140625 241.613281 249.445312 241.488281 C 249.75 241.359375 250.0625 241.265625 250.386719 241.199219 C 250.707031 241.136719 251.035156 241.105469 251.363281 241.105469 Z M 251.363281 241.105469 " fill-opacity="1" fill-rule="nonzero"/><g clip-path="url(#2123826ce7)"><path fill="#ffffff" d="M 522.53125 366.644531 C 521.542969 366.644531 520.5625 366.738281 519.589844 366.933594 C 518.621094 367.125 517.679688 367.410156 516.765625 367.789062 C 515.851562 368.167969 514.984375 368.632812 514.160156 369.183594 C 513.339844 369.730469 512.578125 370.355469 511.878906 371.054688 C 511.179688 371.753906 510.554688 372.515625 510.003906 373.339844 C 509.457031 374.160156 508.992188 375.03125 508.613281 375.945312 C 508.234375 376.855469 507.949219 377.800781 507.753906 378.769531 C 507.5625 379.738281 507.464844 380.71875 507.464844 381.707031 C 507.464844 382.699219 507.5625 383.675781 507.753906 384.648438 C 507.949219 385.617188 508.234375 386.558594 508.613281 387.472656 C 508.992188 388.386719 509.457031 389.253906 510.003906 390.078125 C 510.554688 390.902344 511.179688 391.660156 511.878906 392.359375 C 512.578125 393.058594 513.339844 393.683594 514.160156 394.234375 C 514.984375 394.785156 515.851562 395.246094 516.765625 395.625 C 517.679688 396.003906 518.621094 396.289062 519.589844 396.484375 C 520.5625 396.675781 521.542969 396.773438 522.53125 396.773438 C 523.519531 396.773438 524.5 396.675781 525.46875 396.484375 C 526.441406 396.289062 527.382812 396.003906 528.296875 395.625 C 529.210938 395.246094 530.078125 394.785156 530.898438 394.234375 C 531.722656 393.683594 532.484375 393.058594 533.183594 392.359375 C 533.882812 391.660156 534.507812 390.902344 535.054688 390.078125 C 535.605469 389.253906 536.070312 388.386719 536.449219 387.472656 C 536.828125 386.558594 537.113281 385.617188 537.304688 384.648438 C 537.5 383.675781 537.59375 382.699219 537.59375 381.707031 C 537.59375 380.71875 537.5 379.738281 537.304688 378.769531 C 537.113281 377.800781 536.828125 376.855469 536.449219 375.945312 C 536.070312 375.03125 535.605469 374.160156 535.054688 373.339844 C 534.507812 372.515625 533.882812 371.753906 533.183594 371.054688 C 532.484375 370.355469 531.722656 369.730469 530.898438 369.183594 C 530.078125 368.632812 529.210938 368.167969 528.296875 367.789062 C 527.382812 367.410156 526.441406 367.125 525.46875 366.933594 C 524.5 366.738281 523.519531 366.644531 522.53125 366.644531 Z M 522.53125 386.730469 C 522.199219 386.730469 521.875 386.699219 521.550781 386.632812 C 521.226562 386.570312 520.914062 386.472656 520.609375 386.347656 C 520.304688 386.222656 520.015625 386.066406 519.742188 385.882812 C 519.464844 385.699219 519.210938 385.492188 518.980469 385.257812 C 518.746094 385.027344 518.539062 384.773438 518.355469 384.5 C 518.171875 384.222656 518.015625 383.933594 517.890625 383.628906 C 517.765625 383.324219 517.667969 383.011719 517.605469 382.6875 C 517.542969 382.363281 517.507812 382.039062 517.507812 381.707031 C 517.507812 381.378906 517.542969 381.050781 517.605469 380.730469 C 517.667969 380.40625 517.765625 380.089844 517.890625 379.785156 C 518.015625 379.480469 518.171875 379.191406 518.355469 378.917969 C 518.539062 378.644531 518.746094 378.390625 518.980469 378.15625 C 519.210938 377.925781 519.464844 377.714844 519.742188 377.53125 C 520.015625 377.351562 520.304688 377.195312 520.609375 377.070312 C 520.914062 376.941406 521.226562 376.847656 521.550781 376.785156 C 521.875 376.71875 522.199219 376.6875 522.53125 376.6875 C 522.859375 376.6875 523.1875 376.71875 523.511719 376.785156 C 523.832031 376.847656 524.148438 376.941406 524.453125 377.070312 C 524.757812 377.195312 525.046875 377.351562 525.320312 377.53125 C 525.59375 377.714844 525.847656 377.925781 526.082031 378.15625 C 526.316406 378.390625 526.523438 378.644531 526.707031 378.917969 C 526.890625 379.191406 527.042969 379.480469 527.167969 379.785156 C 527.296875 380.089844 527.390625 380.40625 527.457031 380.730469 C 527.519531 381.050781 527.550781 381.378906 527.550781 381.707031 C 527.550781 382.039062 527.519531 382.363281 527.457031 382.6875 C 527.390625 383.011719 527.296875 383.324219 527.167969 383.628906 C 527.042969 383.933594 526.890625 384.222656 526.707031 384.5 C 526.523438 384.773438 526.316406 385.027344 526.082031 385.257812 C 525.847656 385.492188 525.59375 385.699219 525.320312 385.882812 C 525.046875 386.066406 524.757812 386.222656 524.453125 386.347656 C 524.148438 386.472656 523.832031 386.570312 523.511719 386.632812 C 523.1875 386.699219 522.859375 386.730469 522.53125 386.730469 Z M 522.53125 386.730469 " fill-opacity="1" fill-rule="nonzero"/></g><path fill="#ffffff" d="M 386.949219 502.226562 C 385.957031 502.226562 384.980469 502.324219 384.007812 502.515625 C 383.039062 502.707031 382.097656 502.996094 381.183594 503.375 C 380.269531 503.75 379.402344 504.214844 378.578125 504.765625 C 377.753906 505.316406 376.996094 505.9375 376.296875 506.640625 C 375.597656 507.339844 374.972656 508.097656 374.421875 508.921875 C 373.871094 509.742188 373.410156 510.613281 373.03125 511.527344 C 372.652344 512.441406 372.367188 513.382812 372.171875 514.351562 C 371.980469 515.324219 371.882812 516.300781 371.882812 517.292969 C 371.882812 518.28125 371.980469 519.261719 372.171875 520.230469 C 372.367188 521.199219 372.652344 522.140625 373.03125 523.054688 C 373.410156 523.96875 373.871094 524.839844 374.421875 525.660156 C 374.972656 526.484375 375.597656 527.242188 376.296875 527.945312 C 376.996094 528.644531 377.753906 529.265625 378.578125 529.816406 C 379.402344 530.367188 380.269531 530.832031 381.183594 531.210938 C 382.097656 531.585938 383.039062 531.875 384.007812 532.066406 C 384.980469 532.257812 385.957031 532.355469 386.949219 532.355469 C 387.9375 532.355469 388.917969 532.257812 389.886719 532.066406 C 390.855469 531.875 391.800781 531.585938 392.710938 531.210938 C 393.625 530.832031 394.496094 530.367188 395.316406 529.816406 C 396.140625 529.265625 396.902344 528.644531 397.601562 527.945312 C 398.300781 527.242188 398.925781 526.484375 399.472656 525.660156 C 400.023438 524.839844 400.488281 523.96875 400.867188 523.054688 C 401.246094 522.140625 401.53125 521.199219 401.722656 520.230469 C 401.917969 519.261719 402.011719 518.28125 402.011719 517.292969 C 402.011719 516.300781 401.917969 515.324219 401.722656 514.351562 C 401.53125 513.382812 401.246094 512.441406 400.867188 511.527344 C 400.488281 510.613281 400.023438 509.742188 399.472656 508.921875 C 398.925781 508.097656 398.300781 507.339844 397.601562 506.640625 C 396.902344 505.9375 396.140625 505.316406 395.316406 504.765625 C 394.496094 504.214844 393.625 503.75 392.710938 503.375 C 391.800781 502.996094 390.855469 502.707031 389.886719 502.515625 C 388.917969 502.324219 387.9375 502.226562 386.949219 502.226562 Z M 386.949219 522.3125 C 386.617188 522.3125 386.292969 522.28125 385.96875 522.214844 C 385.644531 522.152344 385.332031 522.058594 385.027344 521.929688 C 384.722656 521.804688 384.433594 521.648438 384.15625 521.464844 C 383.882812 521.285156 383.628906 521.074219 383.398438 520.84375 C 383.164062 520.609375 382.957031 520.355469 382.773438 520.082031 C 382.589844 519.808594 382.433594 519.515625 382.308594 519.210938 C 382.183594 518.90625 382.085938 518.59375 382.023438 518.269531 C 381.957031 517.949219 381.925781 517.621094 381.925781 517.292969 C 381.925781 516.960938 381.957031 516.636719 382.023438 516.3125 C 382.085938 515.988281 382.183594 515.675781 382.308594 515.371094 C 382.433594 515.066406 382.589844 514.777344 382.773438 514.5 C 382.957031 514.226562 383.164062 513.972656 383.398438 513.742188 C 383.628906 513.507812 383.882812 513.300781 384.15625 513.117188 C 384.433594 512.933594 384.722656 512.777344 385.027344 512.652344 C 385.332031 512.527344 385.644531 512.429688 385.96875 512.367188 C 386.292969 512.300781 386.617188 512.269531 386.949219 512.269531 C 387.277344 512.269531 387.605469 512.300781 387.925781 512.367188 C 388.25 512.429688 388.566406 512.527344 388.871094 512.652344 C 389.175781 512.777344 389.464844 512.933594 389.738281 513.117188 C 390.011719 513.300781 390.265625 513.507812 390.5 513.742188 C 390.730469 513.972656 390.941406 514.226562 391.125 514.5 C 391.304688 514.777344 391.460938 515.066406 391.585938 515.371094 C 391.714844 515.675781 391.808594 515.988281 391.871094 516.3125 C 391.9375 516.636719 391.96875 516.960938 391.96875 517.292969 C 391.96875 517.621094 391.9375 517.949219 391.871094 518.269531 C 391.808594 518.59375 391.714844 518.90625 391.585938 519.210938 C 391.460938 519.515625 391.304688 519.808594 391.125 520.082031 C 390.941406 520.355469 390.730469 520.609375 390.5 520.84375 C 390.265625 521.074219 390.011719 521.285156 389.738281 521.464844 C 389.464844 521.648438 389.175781 521.804688 388.871094 521.929688 C 388.566406 522.058594 388.25 522.152344 387.925781 522.214844 C 387.605469 522.28125 387.277344 522.3125 386.949219 522.3125 Z M 386.949219 522.3125 " fill-opacity="1" fill-rule="nonzero"/><g clip-path="url(#d3c866a13e)"><path fill="#ffffff" d="M 532.574219 241.105469 L 527.550781 241.105469 L 527.550781 236.082031 C 527.550781 235.753906 527.519531 235.425781 527.457031 235.101562 C 527.390625 234.78125 527.296875 234.464844 527.167969 234.160156 C 527.042969 233.855469 526.890625 233.566406 526.707031 233.292969 C 526.523438 233.019531 526.316406 232.765625 526.082031 232.53125 C 525.847656 232.296875 525.59375 232.089844 525.320312 231.90625 C 525.046875 231.722656 524.757812 231.570312 524.453125 231.441406 C 524.148438 231.316406 523.832031 231.222656 523.511719 231.15625 C 523.1875 231.09375 522.859375 231.0625 522.53125 231.0625 C 522.199219 231.0625 521.875 231.09375 521.550781 231.15625 C 521.226562 231.222656 520.914062 231.316406 520.609375 231.441406 C 520.304688 231.570312 520.015625 231.722656 519.742188 231.90625 C 519.464844 232.089844 519.210938 232.296875 518.980469 232.53125 C 518.746094 232.765625 518.539062 233.019531 518.355469 233.292969 C 518.171875 233.566406 518.015625 233.855469 517.890625 234.160156 C 517.765625 234.464844 517.667969 234.78125 517.605469 235.101562 C 517.542969 235.425781 517.507812 235.753906 517.507812 236.082031 L 517.507812 241.105469 L 512.488281 241.105469 C 512.15625 241.105469 511.832031 241.136719 511.507812 241.199219 C 511.183594 241.265625 510.871094 241.359375 510.566406 241.488281 C 510.261719 241.613281 509.972656 241.765625 509.699219 241.949219 C 509.421875 242.132812 509.167969 242.339844 508.9375 242.574219 C 508.703125 242.808594 508.496094 243.0625 508.3125 243.335938 C 508.128906 243.609375 507.972656 243.898438 507.847656 244.203125 C 507.722656 244.507812 507.625 244.824219 507.5625 245.144531 C 507.496094 245.46875 507.464844 245.796875 507.464844 246.125 C 507.464844 246.457031 507.496094 246.78125 507.5625 247.105469 C 507.625 247.429688 507.722656 247.742188 507.847656 248.046875 C 507.972656 248.351562 508.128906 248.640625 508.3125 248.914062 C 508.496094 249.191406 508.703125 249.445312 508.9375 249.675781 C 509.167969 249.910156 509.421875 250.117188 509.699219 250.300781 C 509.972656 250.484375 510.261719 250.640625 510.566406 250.765625 C 510.871094 250.890625 511.183594 250.988281 511.507812 251.050781 C 511.832031 251.113281 512.15625 251.148438 512.488281 251.148438 L 517.507812 251.148438 L 517.507812 256.167969 C 517.507812 256.5 517.542969 256.824219 517.605469 257.148438 C 517.667969 257.472656 517.765625 257.785156 517.890625 258.089844 C 518.015625 258.394531 518.171875 258.683594 518.355469 258.957031 C 518.539062 259.234375 518.746094 259.488281 518.980469 259.71875 C 519.210938 259.953125 519.464844 260.160156 519.742188 260.34375 C 520.015625 260.527344 520.304688 260.683594 520.609375 260.808594 C 520.914062 260.933594 521.226562 261.03125 521.550781 261.09375 C 521.875 261.160156 522.199219 261.191406 522.53125 261.191406 C 522.859375 261.191406 523.1875 261.160156 523.511719 261.09375 C 523.832031 261.03125 524.148438 260.933594 524.453125 260.808594 C 524.757812 260.683594 525.046875 260.527344 525.320312 260.34375 C 525.59375 260.160156 525.847656 259.953125 526.082031 259.71875 C 526.316406 259.488281 526.523438 259.234375 526.707031 258.957031 C 526.890625 258.683594 527.042969 258.394531 527.167969 258.089844 C 527.296875 257.785156 527.390625 257.472656 527.457031 257.148438 C 527.519531 256.824219 527.550781 256.5 527.550781 256.167969 L 527.550781 251.148438 L 532.574219 251.148438 C 532.902344 251.148438 533.230469 251.113281 533.554688 251.050781 C 533.875 250.988281 534.191406 250.890625 534.496094 250.765625 C 534.800781 250.640625 535.089844 250.484375 535.363281 250.300781 C 535.636719 250.117188 535.890625 249.910156 536.125 249.675781 C 536.359375 249.445312 536.566406 249.191406 536.75 248.914062 C 536.933594 248.640625 537.085938 248.351562 537.214844 248.046875 C 537.339844 247.742188 537.433594 247.429688 537.5 247.105469 C 537.5625 246.78125 537.59375 246.457031 537.59375 246.125 C 537.59375 245.796875 537.5625 245.46875 537.5 245.144531 C 537.433594 244.824219 537.339844 244.507812 537.214844 244.203125 C 537.085938 243.898438 536.933594 243.609375 536.75 243.335938 C 536.566406 243.0625 536.359375 242.808594 536.125 242.574219 C 535.890625 242.339844 535.636719 242.132812 535.363281 241.949219 C 535.089844 241.765625 534.800781 241.613281 534.496094 241.488281 C 534.191406 241.359375 533.875 241.265625 533.554688 241.199219 C 533.230469 241.136719 532.902344 241.105469 532.574219 241.105469 Z M 532.574219 241.105469 " fill-opacity="1" fill-rule="nonzero"/></g><g clip-path="url(#b7a68cf1d2)"><path fill="#ffffff" d="M 532.574219 512.269531 L 527.550781 512.269531 L 527.550781 507.246094 C 527.550781 506.917969 527.519531 506.589844 527.457031 506.269531 C 527.390625 505.945312 527.296875 505.632812 527.167969 505.328125 C 527.042969 505.023438 526.890625 504.730469 526.707031 504.457031 C 526.523438 504.183594 526.316406 503.929688 526.082031 503.695312 C 525.847656 503.464844 525.59375 503.257812 525.320312 503.074219 C 525.046875 502.890625 524.757812 502.734375 524.453125 502.609375 C 524.148438 502.484375 523.832031 502.386719 523.511719 502.324219 C 523.1875 502.257812 522.859375 502.226562 522.53125 502.226562 C 522.199219 502.226562 521.875 502.257812 521.550781 502.324219 C 521.226562 502.386719 520.914062 502.484375 520.609375 502.609375 C 520.304688 502.734375 520.015625 502.890625 519.742188 503.074219 C 519.464844 503.257812 519.210938 503.464844 518.980469 503.695312 C 518.746094 503.929688 518.539062 504.183594 518.355469 504.457031 C 518.171875 504.730469 518.015625 505.023438 517.890625 505.328125 C 517.765625 505.632812 517.667969 505.945312 517.605469 506.269531 C 517.542969 506.589844 517.507812 506.917969 517.507812 507.246094 L 517.507812 512.269531 L 512.488281 512.269531 C 512.15625 512.269531 511.832031 512.300781 511.507812 512.367188 C 511.183594 512.429688 510.871094 512.527344 510.566406 512.652344 C 510.261719 512.777344 509.972656 512.933594 509.699219 513.117188 C 509.421875 513.300781 509.167969 513.507812 508.9375 513.742188 C 508.703125 513.972656 508.496094 514.226562 508.3125 514.5 C 508.128906 514.777344 507.972656 515.066406 507.847656 515.371094 C 507.722656 515.675781 507.625 515.988281 507.5625 516.3125 C 507.496094 516.636719 507.464844 516.960938 507.464844 517.292969 C 507.464844 517.621094 507.496094 517.949219 507.5625 518.269531 C 507.625 518.59375 507.722656 518.90625 507.847656 519.210938 C 507.972656 519.515625 508.128906 519.808594 508.3125 520.082031 C 508.496094 520.355469 508.703125 520.609375 508.9375 520.84375 C 509.167969 521.074219 509.421875 521.285156 509.699219 521.464844 C 509.972656 521.648438 510.261719 521.804688 510.566406 521.929688 C 510.871094 522.058594 511.183594 522.152344 511.507812 522.214844 C 511.832031 522.28125 512.15625 522.3125 512.488281 522.3125 L 517.507812 522.3125 L 517.507812 527.335938 C 517.507812 527.664062 517.542969 527.992188 517.605469 528.3125 C 517.667969 528.636719 517.765625 528.953125 517.890625 529.257812 C 518.015625 529.5625 518.171875 529.851562 518.355469 530.125 C 518.539062 530.398438 518.746094 530.652344 518.980469 530.886719 C 519.210938 531.117188 519.464844 531.328125 519.742188 531.507812 C 520.015625 531.691406 520.304688 531.847656 520.609375 531.972656 C 520.914062 532.101562 521.226562 532.195312 521.550781 532.257812 C 521.875 532.324219 522.199219 532.355469 522.53125 532.355469 C 522.859375 532.355469 523.1875 532.324219 523.511719 532.257812 C 523.832031 532.195312 524.148438 532.101562 524.453125 531.972656 C 524.757812 531.847656 525.046875 531.691406 525.320312 531.507812 C 525.59375 531.328125 525.847656 531.117188 526.082031 530.886719 C 526.316406 530.652344 526.523438 530.398438 526.707031 530.125 C 526.890625 529.851562 527.042969 529.5625 527.167969 529.257812 C 527.296875 528.953125 527.390625 528.636719 527.457031 528.3125 C 527.519531 527.992188 527.550781 527.664062 527.550781 527.335938 L 527.550781 522.3125 L 532.574219 522.3125 C 532.902344 522.3125 533.230469 522.28125 533.554688 522.214844 C 533.875 522.152344 534.191406 522.058594 534.496094 521.929688 C 534.800781 521.804688 535.089844 521.648438 535.363281 521.464844 C 535.636719 521.285156 535.890625 521.074219 536.125 520.84375 C 536.359375 520.609375 536.566406 520.355469 536.75 520.082031 C 536.933594 519.808594 537.085938 519.515625 537.214844 519.210938 C 537.339844 518.90625 537.433594 518.59375 537.5 518.269531 C 537.5625 517.949219 537.59375 517.621094 537.59375 517.292969 C 537.59375 516.960938 537.5625 516.636719 537.5 516.3125 C 537.433594 515.988281 537.339844 515.675781 537.214844 515.371094 C 537.085938 515.066406 536.933594 514.777344 536.75 514.5 C 536.566406 514.226562 536.359375 513.972656 536.125 513.742188 C 535.890625 513.507812 535.636719 513.300781 535.363281 513.117188 C 535.089844 512.933594 534.800781 512.777344 534.496094 512.652344 C 534.191406 512.527344 533.875 512.429688 533.554688 512.367188 C 533.230469 512.300781 532.902344 512.269531 532.574219 512.269531 Z M 532.574219 512.269531 " fill-opacity="1" fill-rule="nonzero"/></g><path fill="#ffffff" d="M 241.320312 386.730469 L 246.34375 386.730469 L 246.34375 391.75 C 246.34375 392.082031 246.375 392.40625 246.441406 392.730469 C 246.503906 393.054688 246.597656 393.367188 246.726562 393.671875 C 246.851562 393.976562 247.007812 394.265625 247.191406 394.542969 C 247.371094 394.816406 247.582031 395.070312 247.8125 395.300781 C 248.046875 395.535156 248.300781 395.742188 248.574219 395.925781 C 248.847656 396.109375 249.140625 396.265625 249.445312 396.390625 C 249.75 396.515625 250.0625 396.613281 250.386719 396.675781 C 250.707031 396.742188 251.035156 396.773438 251.363281 396.773438 C 251.695312 396.773438 252.019531 396.742188 252.34375 396.675781 C 252.667969 396.613281 252.980469 396.515625 253.285156 396.390625 C 253.589844 396.265625 253.878906 396.109375 254.15625 395.925781 C 254.429688 395.742188 254.683594 395.535156 254.914062 395.300781 C 255.148438 395.070312 255.355469 394.816406 255.539062 394.542969 C 255.722656 394.265625 255.878906 393.976562 256.003906 393.671875 C 256.128906 393.367188 256.226562 393.054688 256.289062 392.730469 C 256.355469 392.40625 256.386719 392.082031 256.386719 391.75 L 256.386719 386.730469 L 261.410156 386.730469 C 261.738281 386.730469 262.066406 386.699219 262.386719 386.632812 C 262.710938 386.570312 263.023438 386.472656 263.328125 386.347656 C 263.632812 386.222656 263.925781 386.066406 264.199219 385.882812 C 264.472656 385.699219 264.726562 385.492188 264.960938 385.257812 C 265.191406 385.027344 265.398438 384.773438 265.582031 384.5 C 265.765625 384.222656 265.921875 383.933594 266.046875 383.628906 C 266.171875 383.324219 266.269531 383.011719 266.332031 382.6875 C 266.398438 382.363281 266.429688 382.039062 266.429688 381.707031 C 266.429688 381.378906 266.398438 381.050781 266.332031 380.730469 C 266.269531 380.40625 266.171875 380.089844 266.046875 379.785156 C 265.921875 379.480469 265.765625 379.191406 265.582031 378.917969 C 265.398438 378.644531 265.191406 378.390625 264.960938 378.15625 C 264.726562 377.925781 264.472656 377.714844 264.199219 377.53125 C 263.925781 377.351562 263.632812 377.195312 263.328125 377.070312 C 263.023438 376.941406 262.710938 376.847656 262.386719 376.785156 C 262.066406 376.71875 261.738281 376.6875 261.410156 376.6875 L 256.386719 376.6875 L 256.386719 371.664062 C 256.386719 371.335938 256.355469 371.007812 256.289062 370.6875 C 256.226562 370.363281 256.128906 370.046875 256.003906 369.742188 C 255.878906 369.4375 255.722656 369.148438 255.539062 368.875 C 255.355469 368.601562 255.148438 368.347656 254.914062 368.113281 C 254.683594 367.882812 254.429688 367.671875 254.15625 367.488281 C 253.878906 367.308594 253.589844 367.152344 253.285156 367.027344 C 252.980469 366.898438 252.667969 366.804688 252.34375 366.738281 C 252.019531 366.675781 251.695312 366.644531 251.363281 366.644531 C 251.035156 366.644531 250.707031 366.675781 250.386719 366.738281 C 250.0625 366.804688 249.75 366.898438 249.445312 367.027344 C 249.140625 367.152344 248.847656 367.308594 248.574219 367.488281 C 248.300781 367.671875 248.046875 367.882812 247.8125 368.113281 C 247.582031 368.347656 247.371094 368.601562 247.191406 368.875 C 247.007812 369.148438 246.851562 369.4375 246.726562 369.742188 C 246.597656 370.046875 246.503906 370.363281 246.441406 370.6875 C 246.375 371.007812 246.34375 371.335938 246.34375 371.664062 L 246.34375 376.6875 L 241.320312 376.6875 C 240.992188 376.6875 240.664062 376.71875 240.34375 376.785156 C 240.019531 376.847656 239.703125 376.941406 239.398438 377.070312 C 239.09375 377.195312 238.804688 377.351562 238.53125 377.53125 C 238.257812 377.714844 238.003906 377.925781 237.769531 378.15625 C 237.539062 378.390625 237.328125 378.644531 237.148438 378.917969 C 236.964844 379.191406 236.808594 379.480469 236.683594 379.785156 C 236.554688 380.089844 236.460938 380.40625 236.398438 380.730469 C 236.332031 381.050781 236.300781 381.378906 236.300781 381.707031 C 236.300781 382.039062 236.332031 382.363281 236.398438 382.6875 C 236.460938 383.011719 236.554688 383.324219 236.683594 383.628906 C 236.808594 383.933594 236.964844 384.222656 237.148438 384.5 C 237.328125 384.773438 237.539062 385.027344 237.769531 385.257812 C 238.003906 385.492188 238.257812 385.699219 238.53125 385.882812 C 238.804688 386.066406 239.09375 386.222656 239.398438 386.347656 C 239.703125 386.472656 240.019531 386.570312 240.34375 386.632812 C 240.664062 386.699219 240.992188 386.730469 241.320312 386.730469 Z M 241.320312 386.730469 " fill-opacity="1" fill-rule="nonzero"/><path fill="#ffffff" d="M 457.175781 317.34375 C 457.175781 299.871094 457.226562 284.011719 457.238281 276.253906 L 467.28125 276.253906 C 471.441406 276.394531 473.902344 271.03125 471.089844 267.96875 L 440.960938 232.820312 C 440.71875 232.554688 440.453125 232.320312 440.160156 232.109375 C 439.867188 231.902344 439.558594 231.726562 439.230469 231.582031 C 438.902344 231.441406 438.5625 231.332031 438.214844 231.257812 C 437.863281 231.183594 437.507812 231.148438 437.152344 231.148438 C 436.792969 231.148438 436.4375 231.183594 436.089844 231.257812 C 435.738281 231.332031 435.398438 231.441406 435.070312 231.582031 C 434.742188 231.726562 434.433594 231.902344 434.140625 232.109375 C 433.851562 232.320312 433.582031 232.554688 433.339844 232.820312 L 403.210938 267.96875 C 400.398438 271.03125 402.859375 276.394531 407.023438 276.253906 L 417.066406 276.253906 L 417.066406 291.238281 C 407.292969 287.957031 397.253906 286.3125 386.949219 286.296875 C 334.339844 286.296875 291.539062 329.101562 291.539062 381.707031 C 291.535156 386.550781 291.902344 391.363281 292.636719 396.144531 C 293.371094 400.929688 294.46875 405.632812 295.921875 410.246094 C 297.378906 414.863281 299.179688 419.34375 301.320312 423.683594 C 303.460938 428.027344 305.921875 432.179688 308.699219 436.140625 L 290.910156 453.894531 C 286.90625 451.695312 281.570312 452.21875 278.261719 455.527344 L 239.628906 494.199219 C 230.429688 503.015625 230.429688 518.898438 239.628906 527.71875 C 248.453125 536.914062 264.328125 536.914062 273.144531 527.71875 L 311.792969 489.042969 C 312.570312 488.273438 313.207031 487.398438 313.707031 486.425781 C 314.210938 485.453125 314.550781 484.425781 314.726562 483.347656 C 314.90625 482.265625 314.917969 481.183594 314.757812 480.101562 C 314.597656 479.019531 314.273438 477.988281 313.789062 477.003906 L 331.566406 459.230469 C 335.574219 462.117188 339.78125 464.675781 344.1875 466.90625 C 348.59375 469.136719 353.148438 471.011719 357.851562 472.53125 C 362.550781 474.046875 367.339844 475.191406 372.21875 475.960938 C 377.097656 476.730469 382.007812 477.117188 386.949219 477.117188 C 439.554688 477.117188 482.359375 434.316406 482.359375 381.707031 C 482.359375 378.757812 482.21875 375.816406 481.945312 372.878906 C 481.671875 369.941406 481.261719 367.023438 480.714844 364.125 C 480.167969 361.226562 479.484375 358.359375 478.671875 355.523438 C 477.855469 352.6875 476.914062 349.898438 475.835938 347.152344 C 474.761719 344.402344 473.5625 341.710938 472.238281 339.078125 C 470.910156 336.441406 469.464844 333.875 467.898438 331.375 C 466.335938 328.875 464.65625 326.453125 462.863281 324.109375 C 461.074219 321.765625 459.175781 319.511719 457.175781 317.34375 Z M 437.164062 243.796875 L 456.378906 266.210938 L 452.226562 266.210938 C 451.898438 266.210938 451.570312 266.246094 451.25 266.308594 C 450.925781 266.371094 450.613281 266.46875 450.308594 266.59375 C 450.003906 266.71875 449.710938 266.875 449.4375 267.058594 C 449.164062 267.242188 448.910156 267.449219 448.675781 267.683594 C 448.445312 267.914062 448.234375 268.167969 448.054688 268.445312 C 447.871094 268.71875 447.714844 269.007812 447.589844 269.3125 C 447.464844 269.617188 447.367188 269.929688 447.304688 270.253906 C 447.238281 270.578125 447.207031 270.902344 447.207031 271.234375 C 447.207031 272.0625 447.019531 354.429688 447.207031 381.753906 C 447.324219 399.019531 439.441406 414.984375 427.121094 426.136719 L 427.121094 271.234375 C 427.121094 270.902344 427.089844 270.578125 427.023438 270.253906 C 426.960938 269.929688 426.863281 269.617188 426.738281 269.3125 C 426.613281 269.007812 426.457031 268.71875 426.273438 268.445312 C 426.089844 268.167969 425.882812 267.914062 425.648438 267.683594 C 425.417969 267.449219 425.164062 267.242188 424.890625 267.058594 C 424.613281 266.875 424.324219 266.71875 424.019531 266.59375 C 423.714844 266.46875 423.402344 266.371094 423.078125 266.308594 C 422.753906 266.246094 422.429688 266.210938 422.097656 266.210938 L 417.949219 266.210938 Z M 350.121094 428.910156 C 338.300781 419.785156 329.828125 406.617188 327.484375 391.75 L 350.121094 391.75 Z M 360.164062 371.664062 L 383.601562 371.664062 L 383.601562 441.746094 C 375.34375 441.183594 367.53125 439.019531 360.164062 435.25 Z M 393.644531 351.578125 L 417.078125 351.578125 L 417.078125 433.5625 C 409.832031 437.875 402.019531 440.519531 393.644531 441.496094 Z M 304.71875 481.96875 L 266.046875 520.617188 C 260.886719 525.777344 251.886719 525.777344 246.726562 520.617188 C 241.421875 515.535156 241.429688 506.382812 246.726562 501.296875 L 285.378906 462.679688 C 285.484375 462.601562 285.601562 462.558594 285.730469 462.558594 C 285.863281 462.558594 285.980469 462.601562 286.082031 462.679688 L 304.71875 481.261719 C 304.804688 481.363281 304.84375 481.484375 304.84375 481.617188 C 304.84375 481.75 304.804688 481.867188 304.71875 481.96875 Z M 307.148438 469.492188 L 298.359375 460.703125 L 314.964844 444.109375 C 317.6875 447.238281 320.601562 450.179688 323.707031 452.933594 Z M 386.949219 467.074219 C 339.871094 467.074219 301.582031 428.785156 301.582031 381.707031 C 301.582031 334.632812 339.871094 296.339844 386.949219 296.339844 C 397.332031 296.355469 407.375 298.214844 417.078125 301.914062 L 417.078125 318.234375 C 414.640625 317.070312 412.148438 316.050781 409.597656 315.175781 C 407.042969 314.296875 404.449219 313.570312 401.8125 312.996094 C 399.175781 312.417969 396.515625 311.996094 393.828125 311.730469 C 391.144531 311.460938 388.449219 311.347656 385.753906 311.390625 C 383.054688 311.433594 380.367188 311.628906 377.691406 311.984375 C 375.015625 312.335938 372.367188 312.84375 369.75 313.503906 C 367.132812 314.160156 364.5625 314.96875 362.039062 315.925781 C 359.515625 316.882812 357.054688 317.980469 354.660156 319.222656 C 354.367188 319.371094 354.089844 319.550781 353.832031 319.757812 C 353.574219 319.960938 353.339844 320.191406 353.125 320.445312 C 352.914062 320.695312 352.726562 320.964844 352.566406 321.253906 C 352.410156 321.542969 352.277344 321.847656 352.179688 322.160156 C 352.078125 322.476562 352.011719 322.796875 351.972656 323.125 C 351.9375 323.453125 351.933594 323.78125 351.960938 324.109375 C 351.988281 324.4375 352.046875 324.761719 352.140625 325.078125 C 352.230469 325.394531 352.351562 325.699219 352.503906 325.992188 C 352.65625 326.285156 352.835938 326.5625 353.042969 326.820312 C 353.246094 327.078125 353.476562 327.3125 353.730469 327.523438 C 353.980469 327.738281 354.253906 327.921875 354.542969 328.082031 C 354.832031 328.242188 355.132812 328.371094 355.445312 328.472656 C 355.761719 328.570312 356.082031 328.636719 356.410156 328.675781 C 356.738281 328.710938 357.066406 328.714844 357.394531 328.6875 C 357.722656 328.660156 358.046875 328.597656 358.363281 328.507812 C 358.679688 328.414062 358.984375 328.292969 359.277344 328.140625 C 361.515625 326.984375 363.8125 325.972656 366.175781 325.105469 C 368.539062 324.238281 370.949219 323.523438 373.398438 322.957031 C 375.851562 322.394531 378.332031 321.988281 380.835938 321.734375 C 383.339844 321.484375 385.851562 321.386719 388.367188 321.453125 C 390.882812 321.515625 393.386719 321.738281 395.875 322.117188 C 398.363281 322.496094 400.816406 323.027344 403.238281 323.71875 C 405.660156 324.40625 408.027344 325.242188 410.34375 326.226562 C 412.660156 327.214844 414.902344 328.339844 417.078125 329.609375 L 417.078125 341.535156 L 388.625 341.535156 C 388.292969 341.535156 387.96875 341.566406 387.644531 341.632812 C 387.320312 341.695312 387.007812 341.792969 386.703125 341.917969 C 386.398438 342.042969 386.109375 342.199219 385.832031 342.382812 C 385.558594 342.566406 385.304688 342.773438 385.074219 343.007812 C 384.839844 343.238281 384.632812 343.492188 384.449219 343.765625 C 384.265625 344.042969 384.109375 344.332031 383.984375 344.636719 C 383.859375 344.941406 383.761719 345.253906 383.699219 345.578125 C 383.632812 345.902344 383.601562 346.226562 383.601562 346.558594 L 383.601562 361.621094 L 355.140625 361.621094 C 354.8125 361.621094 354.484375 361.65625 354.164062 361.71875 C 353.839844 361.78125 353.523438 361.878906 353.222656 362.003906 C 352.917969 362.128906 352.625 362.285156 352.351562 362.46875 C 352.078125 362.652344 351.824219 362.859375 351.589844 363.09375 C 351.359375 363.324219 351.148438 363.578125 350.96875 363.855469 C 350.785156 364.128906 350.628906 364.417969 350.503906 364.722656 C 350.375 365.027344 350.28125 365.339844 350.21875 365.664062 C 350.152344 365.988281 350.121094 366.3125 350.121094 366.644531 L 350.121094 381.707031 L 326.71875 381.707031 C 326.714844 376.980469 327.257812 372.316406 328.347656 367.71875 C 329.4375 363.117188 331.046875 358.707031 333.171875 354.484375 C 333.324219 354.191406 333.441406 353.886719 333.53125 353.570312 C 333.621094 353.25 333.679688 352.929688 333.707031 352.601562 C 333.730469 352.273438 333.726562 351.945312 333.6875 351.617188 C 333.648438 351.289062 333.578125 350.96875 333.476562 350.65625 C 333.375 350.339844 333.246094 350.039062 333.082031 349.753906 C 332.921875 349.464844 332.734375 349.195312 332.523438 348.945312 C 332.308594 348.695312 332.070312 348.464844 331.8125 348.261719 C 331.554688 348.058594 331.277344 347.878906 330.984375 347.730469 C 330.691406 347.582031 330.386719 347.460938 330.066406 347.371094 C 329.75 347.28125 329.429688 347.222656 329.097656 347.195312 C 328.769531 347.171875 328.441406 347.175781 328.117188 347.214844 C 327.789062 347.253906 327.46875 347.324219 327.152344 347.425781 C 326.839844 347.527344 326.539062 347.65625 326.25 347.816406 C 325.964844 347.976562 325.695312 348.164062 325.445312 348.378906 C 325.191406 348.59375 324.964844 348.828125 324.761719 349.085938 C 324.554688 349.347656 324.378906 349.621094 324.226562 349.914062 C 321.378906 355.625 319.332031 361.605469 318.089844 367.867188 C 316.84375 374.125 316.449219 380.433594 316.902344 386.800781 C 319.34375 422.917969 351.867188 452.820312 388.742188 451.929688 C 426.136719 451.019531 457.511719 418.867188 457.25 381.707031 C 457.175781 371.1875 457.15625 352.484375 457.167969 333.425781 C 459.617188 336.949219 461.785156 340.636719 463.671875 344.488281 C 465.5625 348.34375 467.148438 352.316406 468.433594 356.410156 C 469.714844 360.503906 470.683594 364.671875 471.335938 368.910156 C 471.984375 373.152344 472.3125 377.417969 472.316406 381.707031 C 472.316406 428.785156 434.023438 467.074219 386.949219 467.074219 Z M 386.949219 467.074219 " fill-opacity="1" fill-rule="nonzero"/><path fill="#ffffff" d="M 345.765625 335.742188 C 345.765625 336.070312 345.730469 336.398438 345.667969 336.722656 C 345.605469 337.046875 345.507812 337.359375 345.382812 337.664062 C 345.257812 337.96875 345.101562 338.257812 344.917969 338.53125 C 344.734375 338.804688 344.527344 339.058594 344.292969 339.292969 C 344.0625 339.527344 343.808594 339.734375 343.53125 339.917969 C 343.257812 340.101562 342.96875 340.253906 342.664062 340.382812 C 342.359375 340.507812 342.046875 340.601562 341.722656 340.667969 C 341.398438 340.730469 341.074219 340.765625 340.742188 340.765625 C 340.414062 340.765625 340.085938 340.730469 339.761719 340.667969 C 339.441406 340.601562 339.125 340.507812 338.820312 340.382812 C 338.515625 340.253906 338.226562 340.101562 337.953125 339.917969 C 337.679688 339.734375 337.425781 339.527344 337.191406 339.292969 C 336.960938 339.058594 336.75 338.804688 336.566406 338.53125 C 336.382812 338.257812 336.230469 337.96875 336.105469 337.664062 C 335.976562 337.359375 335.882812 337.046875 335.816406 336.722656 C 335.753906 336.398438 335.722656 336.070312 335.722656 335.742188 C 335.722656 335.414062 335.753906 335.085938 335.816406 334.761719 C 335.882812 334.4375 335.976562 334.125 336.105469 333.820312 C 336.230469 333.515625 336.382812 333.226562 336.566406 332.953125 C 336.75 332.679688 336.960938 332.425781 337.191406 332.191406 C 337.425781 331.957031 337.679688 331.75 337.953125 331.566406 C 338.226562 331.382812 338.515625 331.230469 338.820312 331.101562 C 339.125 330.976562 339.441406 330.882812 339.761719 330.816406 C 340.085938 330.753906 340.414062 330.71875 340.742188 330.71875 C 341.074219 330.71875 341.398438 330.753906 341.722656 330.816406 C 342.046875 330.882812 342.359375 330.976562 342.664062 331.101562 C 342.96875 331.230469 343.257812 331.382812 343.53125 331.566406 C 343.808594 331.75 344.0625 331.957031 344.292969 332.191406 C 344.527344 332.425781 344.734375 332.679688 344.917969 332.953125 C 345.101562 333.226562 345.257812 333.515625 345.382812 333.820312 C 345.507812 334.125 345.605469 334.4375 345.667969 334.761719 C 345.730469 335.085938 345.765625 335.414062 345.765625 335.742188 Z M 345.765625 335.742188 " fill-opacity="1" fill-rule="nonzero"/></svg>