<svg xmlns="http://www.w3.org/2000/svg" xmlns:xlink="http://www.w3.org/1999/xlink" width="1024" zoomAndPan="magnify" viewBox="0 0 768 767.999994" height="1024" preserveAspectRatio="xMidYMid meet" version="1.0"><defs><clipPath id="4b520864be"><path d="M 230.398438 251.34375 L 537.898438 251.34375 L 537.898438 516 L 230.398438 516 Z M 230.398438 251.34375 " clip-rule="nonzero"/></clipPath></defs><g clip-path="url(#4b520864be)"><path fill="#ffffff" d="M 300.660156 385.367188 C 300.652344 385.140625 300.640625 384.910156 300.632812 384.679688 C 298.214844 322.785156 351.128906 276.773438 405.5 276.773438 C 459.871094 276.773438 511.757812 319.625 511.757812 384.679688 C 511.757812 414.785156 497.777344 443.066406 479.347656 461.179688 C 457.945312 482.210938 430.253906 490.691406 406.914062 490.691406 C 363.472656 490.691406 333.375 459.988281 333.375 459.988281 L 314.039062 478.167969 C 314.039062 478.167969 333.570312 495.519531 349.632812 502.953125 C 365.695312 510.382812 370.398438 514.882812 405.5 515.667969 C 435.648438 516.339844 463.789062 502.871094 482.085938 490.691406 C 533.597656 456.410156 537.59375 407.453125 537.59375 385.019531 C 537.59375 362.589844 533.125 318.554688 490.234375 282.164062 C 470.175781 265.148438 444.085938 251.652344 403.03125 251.652344 C 364.738281 251.652344 335.613281 269.28125 316.617188 285.839844 C 271.695312 324.992188 273.523438 385.019531 273.523438 385.019531 C 273.523438 385.019531 273.582031 385.140625 273.691406 385.367188 L 230.375 385.367188 L 288.730469 445.597656 L 348.972656 385.367188 Z M 300.660156 385.367188 " fill-opacity="1" fill-rule="evenodd"/></g><path fill="#ffffff" d="M 393.597656 329.28125 L 393.597656 399.644531 L 456.128906 437.625 L 466.765625 422.824219 L 414.1875 390.96875 L 414.1875 329.28125 Z M 393.597656 329.28125 " fill-opacity="1" fill-rule="evenodd"/></svg>