<svg xmlns="http://www.w3.org/2000/svg" xmlns:xlink="http://www.w3.org/1999/xlink" width="1024" zoomAndPan="magnify" viewBox="0 0 768 767.999994" height="1024" preserveAspectRatio="xMidYMid meet" version="1.0"><defs><clipPath id="8eeb37fd66"><path d="M 235.777344 240 L 532.027344 240 L 532.027344 537 L 235.777344 537 Z M 235.777344 240 " clip-rule="nonzero"/></clipPath></defs><g clip-path="url(#8eeb37fd66)"><path fill="#ffffff" d="M 532.214844 388.234375 C 532.214844 390.660156 532.152344 393.082031 532.035156 395.503906 C 531.914062 397.929688 531.738281 400.347656 531.5 402.761719 C 531.261719 405.175781 530.964844 407.582031 530.609375 409.980469 C 530.253906 412.378906 529.839844 414.769531 529.367188 417.148438 C 528.890625 419.527344 528.359375 421.894531 527.773438 424.246094 C 527.183594 426.601562 526.535156 428.9375 525.832031 431.257812 C 525.128906 433.578125 524.367188 435.882812 523.550781 438.164062 C 522.730469 440.449219 521.859375 442.710938 520.929688 444.953125 C 520.003906 447.195312 519.019531 449.410156 517.984375 451.605469 C 516.945312 453.796875 515.855469 455.964844 514.710938 458.101562 C 513.570312 460.242188 512.375 462.351562 511.125 464.433594 C 509.878906 466.511719 508.582031 468.5625 507.234375 470.578125 C 505.886719 472.59375 504.488281 474.578125 503.046875 476.527344 C 501.601562 478.476562 500.109375 480.386719 498.570312 482.261719 C 497.03125 484.136719 495.445312 485.972656 493.816406 487.769531 C 492.1875 489.566406 490.515625 491.324219 488.800781 493.039062 C 487.085938 494.753906 485.328125 496.425781 483.53125 498.054688 C 481.734375 499.683594 479.898438 501.269531 478.023438 502.808594 C 476.148438 504.347656 474.238281 505.839844 472.289062 507.28125 C 470.339844 508.726562 468.359375 510.125 466.339844 511.472656 C 464.324219 512.820312 462.273438 514.117188 460.195312 515.363281 C 458.113281 516.609375 456.003906 517.804688 453.863281 518.949219 C 451.726562 520.09375 449.558594 521.183594 447.367188 522.21875 C 445.171875 523.257812 442.957031 524.242188 440.714844 525.167969 C 438.472656 526.097656 436.210938 526.96875 433.929688 527.785156 C 431.644531 528.605469 429.339844 529.363281 427.019531 530.070312 C 424.699219 530.773438 422.363281 531.417969 420.007812 532.007812 C 417.65625 532.597656 415.289062 533.128906 412.910156 533.601562 C 410.53125 534.078125 408.140625 534.492188 405.742188 534.847656 C 403.34375 535.203125 400.9375 535.5 398.523438 535.738281 C 396.109375 535.976562 393.691406 536.152344 391.265625 536.273438 C 388.84375 536.390625 386.421875 536.453125 383.996094 536.453125 C 381.570312 536.453125 379.144531 536.390625 376.722656 536.273438 C 374.300781 536.152344 371.878906 535.976562 369.464844 535.738281 C 367.050781 535.5 364.644531 535.203125 362.246094 534.847656 C 359.847656 534.492188 357.457031 534.078125 355.078125 533.601562 C 352.699219 533.128906 350.332031 532.597656 347.980469 532.007812 C 345.628906 531.417969 343.289062 530.773438 340.96875 530.070312 C 338.648438 529.363281 336.34375 528.605469 334.0625 527.785156 C 331.777344 526.96875 329.515625 526.097656 327.273438 525.167969 C 325.03125 524.242188 322.816406 523.257812 320.625 522.21875 C 318.429688 521.183594 316.265625 520.09375 314.125 518.949219 C 311.984375 517.804688 309.875 516.609375 307.796875 515.363281 C 305.714844 514.117188 303.664062 512.820312 301.648438 511.472656 C 299.632812 510.125 297.648438 508.726562 295.699219 507.28125 C 293.753906 505.839844 291.839844 504.347656 289.964844 502.808594 C 288.089844 501.269531 286.253906 499.683594 284.457031 498.054688 C 282.660156 496.425781 280.902344 494.753906 279.1875 493.039062 C 277.472656 491.324219 275.800781 489.566406 274.171875 487.769531 C 272.542969 485.972656 270.957031 484.136719 269.421875 482.261719 C 267.882812 480.386719 266.390625 478.476562 264.945312 476.527344 C 263.5 474.578125 262.101562 472.59375 260.753906 470.578125 C 259.40625 468.5625 258.109375 466.511719 256.863281 464.433594 C 255.617188 462.351562 254.421875 460.242188 253.277344 458.101562 C 252.132812 455.964844 251.042969 453.796875 250.007812 451.605469 C 248.96875 449.410156 247.988281 447.195312 247.058594 444.953125 C 246.128906 442.710938 245.257812 440.449219 244.441406 438.164062 C 243.625 435.882812 242.863281 433.578125 242.160156 431.257812 C 241.453125 428.9375 240.808594 426.601562 240.21875 424.246094 C 239.628906 421.894531 239.097656 419.527344 238.625 417.148438 C 238.152344 414.769531 237.734375 412.378906 237.378906 409.980469 C 237.023438 407.582031 236.726562 405.175781 236.488281 402.761719 C 236.25 400.347656 236.074219 397.929688 235.953125 395.503906 C 235.835938 393.082031 235.777344 390.660156 235.777344 388.234375 C 235.777344 387.539062 235.84375 386.847656 235.980469 386.167969 C 236.113281 385.484375 236.316406 384.824219 236.582031 384.179688 C 236.847656 383.539062 237.175781 382.929688 237.558594 382.351562 C 237.945312 381.773438 238.386719 381.238281 238.875 380.746094 C 239.367188 380.253906 239.902344 379.816406 240.480469 379.429688 C 241.058594 379.042969 241.667969 378.71875 242.3125 378.453125 C 242.953125 378.183594 243.617188 377.984375 244.296875 377.847656 C 244.980469 377.714844 245.667969 377.644531 246.363281 377.644531 C 247.058594 377.644531 247.746094 377.714844 248.429688 377.847656 C 249.109375 377.984375 249.773438 378.183594 250.414062 378.453125 C 251.058594 378.71875 251.667969 379.042969 252.246094 379.429688 C 252.824219 379.816406 253.359375 380.253906 253.847656 380.746094 C 254.339844 381.238281 254.78125 381.773438 255.164062 382.351562 C 255.550781 382.929688 255.878906 383.539062 256.144531 384.179688 C 256.410156 384.824219 256.609375 385.484375 256.746094 386.167969 C 256.882812 386.847656 256.949219 387.539062 256.949219 388.234375 C 256.945312 390.574219 257.007812 392.914062 257.132812 395.253906 C 257.257812 397.589844 257.449219 399.925781 257.703125 402.25 C 257.957031 404.578125 258.277344 406.898438 258.660156 409.207031 C 259.042969 411.519531 259.488281 413.816406 259.996094 416.101562 C 260.507812 418.386719 261.078125 420.65625 261.714844 422.910156 C 262.347656 425.164062 263.042969 427.402344 263.804688 429.617188 C 264.5625 431.832031 265.378906 434.023438 266.257812 436.195312 C 267.136719 438.367188 268.078125 440.511719 269.074219 442.628906 C 270.070312 444.746094 271.128906 446.835938 272.238281 448.898438 C 273.351562 450.957031 274.523438 452.984375 275.746094 454.980469 C 276.972656 456.976562 278.25 458.9375 279.585938 460.863281 C 280.917969 462.789062 282.304688 464.675781 283.738281 466.523438 C 285.175781 468.371094 286.664062 470.179688 288.203125 471.945312 C 289.738281 473.710938 291.324219 475.433594 292.957031 477.113281 C 294.589844 478.792969 296.265625 480.425781 297.988281 482.011719 C 299.710938 483.597656 301.476562 485.136719 303.28125 486.625 C 305.089844 488.113281 306.9375 489.550781 308.824219 490.9375 C 310.710938 492.324219 312.632812 493.660156 314.59375 494.941406 C 316.554688 496.222656 318.550781 497.445312 320.578125 498.617188 C 322.605469 499.789062 324.664062 500.902344 326.753906 501.960938 C 328.84375 503.015625 330.960938 504.015625 333.105469 504.953125 C 335.25 505.894531 337.417969 506.773438 339.613281 507.59375 C 341.804688 508.414062 344.019531 509.175781 346.253906 509.871094 C 348.492188 510.570312 350.742188 511.207031 353.011719 511.78125 C 355.285156 512.355469 357.570312 512.863281 359.867188 513.3125 C 362.164062 513.761719 364.472656 514.144531 366.792969 514.464844 C 369.113281 514.785156 371.441406 515.039062 373.773438 515.230469 C 376.109375 515.421875 378.445312 515.550781 380.785156 515.613281 C 383.128906 515.675781 385.46875 515.671875 387.808594 515.605469 C 390.148438 515.539062 392.488281 515.410156 394.820312 515.210938 C 397.152344 515.015625 399.480469 514.757812 401.800781 514.433594 C 404.117188 514.109375 406.425781 513.722656 408.722656 513.269531 C 411.023438 512.816406 413.304688 512.304688 415.574219 511.726562 C 417.84375 511.148438 420.097656 510.507812 422.328125 509.804688 C 424.5625 509.101562 426.777344 508.339844 428.96875 507.515625 C 431.160156 506.691406 433.328125 505.808594 435.472656 504.863281 C 437.613281 503.921875 439.730469 502.917969 441.816406 501.855469 C 443.90625 500.796875 445.960938 499.679688 447.988281 498.503906 C 450.015625 497.332031 452.003906 496.101562 453.964844 494.816406 C 455.921875 493.53125 457.84375 492.195312 459.726562 490.804688 C 461.613281 489.414062 463.457031 487.972656 465.261719 486.480469 C 467.066406 484.988281 468.828125 483.449219 470.546875 481.859375 C 472.265625 480.269531 473.941406 478.632812 475.570312 476.953125 C 477.199219 475.269531 478.78125 473.542969 480.316406 471.773438 C 481.851562 470.007812 483.335938 468.195312 484.769531 466.34375 C 486.203125 464.492188 487.585938 462.605469 488.914062 460.675781 C 490.242188 458.75 491.519531 456.785156 492.742188 454.789062 C 493.960938 452.789062 495.128906 450.761719 496.238281 448.699219 C 497.347656 446.636719 498.398438 444.546875 499.390625 442.425781 C 500.386719 440.304688 501.320312 438.160156 502.195312 435.984375 C 503.070312 433.8125 503.886719 431.621094 504.640625 429.402344 C 505.394531 427.1875 506.085938 424.949219 506.71875 422.695312 C 507.347656 420.441406 507.917969 418.167969 508.421875 415.882812 C 508.925781 413.597656 509.371094 411.296875 509.746094 408.988281 C 510.125 406.675781 510.441406 404.355469 510.691406 402.027344 C 510.941406 399.699219 511.128906 397.367188 511.25 395.027344 C 511.371094 392.6875 511.425781 390.347656 511.417969 388.007812 C 511.410156 385.664062 511.339844 383.324219 511.203125 380.988281 C 511.066406 378.652344 510.863281 376.316406 510.597656 373.992188 C 510.332031 371.664062 510.003906 369.347656 509.609375 367.039062 C 509.21875 364.730469 508.761719 362.433594 508.238281 360.152344 C 507.71875 357.867188 507.136719 355.601562 506.492188 353.351562 C 505.84375 351.101562 505.136719 348.867188 504.371094 346.65625 C 503.601562 344.445312 502.773438 342.253906 501.882812 340.089844 C 500.992188 337.921875 500.042969 335.785156 499.035156 333.667969 C 498.027344 331.554688 496.964844 329.472656 495.839844 327.417969 C 494.71875 325.363281 493.539062 323.339844 492.304688 321.347656 C 491.070312 319.359375 489.78125 317.40625 488.441406 315.484375 C 487.097656 313.566406 485.703125 311.6875 484.257812 309.84375 C 482.8125 308.003906 481.316406 306.203125 479.769531 304.445312 C 478.222656 302.683594 476.632812 300.96875 474.992188 299.296875 C 473.351562 297.628906 471.664062 296.003906 469.933594 294.425781 C 468.207031 292.847656 466.433594 291.316406 464.617188 289.835938 C 462.804688 288.355469 460.949219 286.925781 459.058594 285.550781 C 457.164062 284.171875 455.234375 282.847656 453.265625 281.574219 C 451.300781 280.304688 449.300781 279.085938 447.265625 277.925781 C 445.234375 276.765625 443.167969 275.660156 441.074219 274.613281 C 438.980469 273.566406 436.859375 272.578125 434.710938 271.648438 C 432.558594 270.71875 430.386719 269.847656 428.191406 269.039062 C 425.992188 268.230469 423.773438 267.480469 421.535156 266.792969 C 419.296875 266.105469 417.042969 265.480469 414.769531 264.917969 C 412.496094 264.355469 410.210938 263.855469 407.910156 263.417969 C 405.609375 262.980469 403.296875 262.609375 400.976562 262.300781 C 398.65625 261.992188 396.328125 261.746094 393.992188 261.566406 C 391.65625 261.386719 389.320312 261.269531 386.976562 261.21875 C 384.636719 261.167969 382.296875 261.179688 379.957031 261.257812 C 377.617188 261.335938 375.277344 261.476562 372.945312 261.683594 C 370.613281 261.890625 368.289062 262.164062 365.972656 262.496094 C 363.652344 262.832031 361.347656 263.230469 359.050781 263.695312 C 356.757812 264.15625 354.476562 264.683594 352.207031 265.269531 C 349.941406 265.859375 347.695312 266.511719 345.460938 267.222656 C 343.230469 267.9375 341.023438 268.710938 338.835938 269.542969 C 336.648438 270.378906 334.484375 271.273438 332.34375 272.226562 C 330.207031 273.179688 328.097656 274.195312 326.015625 275.265625 C 323.929688 276.335938 321.878906 277.460938 319.859375 278.644531 C 317.839844 279.828125 315.851562 281.070312 313.902344 282.363281 L 320.472656 282.363281 C 321.167969 282.363281 321.855469 282.429688 322.539062 282.566406 C 323.21875 282.699219 323.882812 282.902344 324.523438 283.167969 C 325.167969 283.433594 325.777344 283.761719 326.355469 284.144531 C 326.933594 284.53125 327.46875 284.972656 327.957031 285.460938 C 328.449219 285.953125 328.890625 286.488281 329.273438 287.066406 C 329.660156 287.644531 329.988281 288.253906 330.253906 288.898438 C 330.519531 289.539062 330.71875 290.203125 330.855469 290.882812 C 330.992188 291.566406 331.058594 292.253906 331.058594 292.949219 C 331.058594 293.644531 330.992188 294.332031 330.855469 295.015625 C 330.71875 295.695312 330.519531 296.359375 330.253906 297 C 329.988281 297.644531 329.660156 298.253906 329.273438 298.832031 C 328.890625 299.410156 328.449219 299.945312 327.957031 300.433594 C 327.46875 300.925781 326.933594 301.367188 326.355469 301.75 C 325.777344 302.136719 325.167969 302.464844 324.523438 302.730469 C 323.882812 302.996094 323.21875 303.195312 322.539062 303.332031 C 321.855469 303.46875 321.167969 303.535156 320.472656 303.535156 L 288.710938 303.535156 C 288.015625 303.535156 287.328125 303.46875 286.644531 303.332031 C 285.964844 303.199219 285.300781 302.996094 284.660156 302.730469 C 284.015625 302.464844 283.40625 302.140625 282.828125 301.753906 C 282.25 301.367188 281.714844 300.929688 281.222656 300.4375 C 280.730469 299.945312 280.292969 299.410156 279.90625 298.832031 C 279.519531 298.253906 279.195312 297.644531 278.929688 297 C 278.664062 296.359375 278.460938 295.695312 278.328125 295.015625 C 278.191406 294.332031 278.125 293.644531 278.125 292.949219 L 278.125 261.1875 C 278.125 260.492188 278.191406 259.804688 278.328125 259.121094 C 278.464844 258.441406 278.664062 257.777344 278.929688 257.136719 C 279.195312 256.492188 279.523438 255.882812 279.910156 255.304688 C 280.292969 254.726562 280.734375 254.191406 281.226562 253.703125 C 281.714844 253.210938 282.25 252.769531 282.828125 252.386719 C 283.40625 252 284.015625 251.671875 284.660156 251.40625 C 285.300781 251.140625 285.964844 250.941406 286.644531 250.804688 C 287.328125 250.667969 288.015625 250.601562 288.710938 250.601562 C 289.40625 250.601562 290.09375 250.667969 290.777344 250.804688 C 291.457031 250.941406 292.121094 251.140625 292.761719 251.40625 C 293.40625 251.671875 294.015625 252 294.59375 252.386719 C 295.171875 252.769531 295.707031 253.210938 296.199219 253.703125 C 296.6875 254.191406 297.128906 254.726562 297.515625 255.304688 C 297.898438 255.882812 298.226562 256.492188 298.492188 257.136719 C 298.757812 257.777344 298.960938 258.441406 299.09375 259.121094 C 299.230469 259.804688 299.296875 260.492188 299.296875 261.1875 L 299.296875 266.628906 C 302.058594 264.703125 304.882812 262.875 307.769531 261.144531 C 310.65625 259.410156 313.597656 257.777344 316.59375 256.246094 C 319.589844 254.714844 322.636719 253.289062 325.730469 251.964844 C 328.824219 250.640625 331.960938 249.421875 335.140625 248.3125 C 338.316406 247.199219 341.527344 246.199219 344.773438 245.308594 C 348.019531 244.417969 351.292969 243.636719 354.589844 242.96875 C 357.890625 242.300781 361.207031 241.742188 364.542969 241.300781 C 367.878906 240.859375 371.226562 240.53125 374.585938 240.316406 C 377.945312 240.101562 381.308594 240 384.675781 240.015625 C 388.039062 240.03125 391.402344 240.160156 394.757812 240.402344 C 398.117188 240.644531 401.460938 241.003906 404.792969 241.476562 C 408.125 241.945312 411.4375 242.53125 414.730469 243.230469 C 418.023438 243.925781 421.289062 244.734375 424.527344 245.65625 C 427.765625 246.574219 430.96875 247.605469 434.136719 248.742188 C 437.304688 249.878906 440.429688 251.125 443.511719 252.476562 C 446.59375 253.828125 449.628906 255.28125 452.613281 256.839844 C 455.59375 258.398438 458.523438 260.054688 461.394531 261.8125 C 464.265625 263.570312 467.070312 265.421875 469.816406 267.371094 C 472.558594 269.320312 475.234375 271.359375 477.839844 273.488281 C 480.445312 275.621094 482.976562 277.835938 485.429688 280.140625 C 487.886719 282.445312 490.257812 284.828125 492.550781 287.292969 C 494.84375 289.757812 497.046875 292.296875 499.167969 294.914062 C 501.285156 297.527344 503.3125 300.214844 505.25 302.964844 C 507.183594 305.71875 509.023438 308.535156 510.769531 311.414062 C 512.511719 314.292969 514.15625 317.226562 515.703125 320.21875 C 517.246094 323.210938 518.6875 326.25 520.023438 329.339844 C 521.359375 332.429688 522.589844 335.558594 523.714844 338.730469 C 524.835938 341.90625 525.851562 345.113281 526.757812 348.355469 C 527.660156 351.597656 528.457031 354.863281 529.136719 358.160156 C 529.820312 361.457031 530.390625 364.773438 530.84375 368.105469 C 531.300781 371.441406 531.644531 374.789062 531.871094 378.144531 C 532.101562 381.503906 532.214844 384.867188 532.214844 388.234375 Z M 479.277344 388.234375 C 479.277344 389.792969 479.238281 391.351562 479.164062 392.90625 C 479.085938 394.464844 478.972656 396.019531 478.820312 397.570312 C 478.667969 399.125 478.476562 400.671875 478.246094 402.214844 C 478.019531 403.757812 477.75 405.292969 477.449219 406.820312 C 477.144531 408.351562 476.800781 409.871094 476.421875 411.382812 C 476.042969 412.898438 475.628906 414.398438 475.175781 415.890625 C 474.722656 417.382812 474.234375 418.863281 473.707031 420.332031 C 473.183594 421.800781 472.621094 423.253906 472.023438 424.695312 C 471.429688 426.136719 470.796875 427.5625 470.128906 428.972656 C 469.464844 430.382812 468.761719 431.773438 468.027344 433.148438 C 467.292969 434.523438 466.523438 435.878906 465.722656 437.21875 C 464.921875 438.554688 464.085938 439.871094 463.21875 441.167969 C 462.355469 442.464844 461.457031 443.742188 460.527344 444.992188 C 459.597656 446.246094 458.640625 447.472656 457.648438 448.679688 C 456.660156 449.886719 455.640625 451.066406 454.59375 452.222656 C 453.546875 453.375 452.472656 454.503906 451.371094 455.609375 C 450.269531 456.710938 449.136719 457.785156 447.984375 458.832031 C 446.828125 459.878906 445.648438 460.898438 444.441406 461.886719 C 443.238281 462.875 442.007812 463.835938 440.753906 464.765625 C 439.503906 465.695312 438.226562 466.589844 436.929688 467.457031 C 435.636719 468.324219 434.316406 469.15625 432.980469 469.960938 C 431.644531 470.761719 430.285156 471.53125 428.910156 472.265625 C 427.535156 473 426.144531 473.699219 424.734375 474.367188 C 423.324219 475.035156 421.898438 475.667969 420.457031 476.261719 C 419.015625 476.859375 417.5625 477.421875 416.09375 477.945312 C 414.625 478.472656 413.144531 478.960938 411.652344 479.414062 C 410.160156 479.867188 408.660156 480.28125 407.148438 480.660156 C 405.632812 481.039062 404.113281 481.382812 402.582031 481.683594 C 401.054688 481.988281 399.519531 482.253906 397.976562 482.484375 C 396.433594 482.714844 394.886719 482.90625 393.335938 483.058594 C 391.78125 483.210938 390.226562 483.324219 388.671875 483.402344 C 387.113281 483.476562 385.554688 483.515625 383.996094 483.515625 C 382.433594 483.515625 380.875 483.476562 379.320312 483.402344 C 377.761719 483.324219 376.207031 483.210938 374.65625 483.058594 C 373.101562 482.90625 371.554688 482.714844 370.015625 482.484375 C 368.472656 482.253906 366.933594 481.988281 365.40625 481.683594 C 363.875 481.382812 362.355469 481.039062 360.84375 480.660156 C 359.328125 480.28125 357.828125 479.867188 356.335938 479.414062 C 354.84375 478.960938 353.363281 478.472656 351.894531 477.945312 C 350.425781 477.421875 348.972656 476.859375 347.53125 476.261719 C 346.089844 475.667969 344.664062 475.035156 343.253906 474.367188 C 341.847656 473.699219 340.453125 473 339.078125 472.265625 C 337.703125 471.53125 336.347656 470.761719 335.007812 469.960938 C 333.671875 469.15625 332.355469 468.324219 331.058594 467.457031 C 329.761719 466.589844 328.488281 465.695312 327.234375 464.765625 C 325.980469 463.835938 324.753906 462.875 323.546875 461.886719 C 322.34375 460.898438 321.160156 459.878906 320.007812 458.832031 C 318.851562 457.785156 317.722656 456.710938 316.617188 455.609375 C 315.515625 454.503906 314.441406 453.375 313.394531 452.222656 C 312.347656 451.066406 311.328125 449.886719 310.339844 448.679688 C 309.351562 447.472656 308.390625 446.246094 307.460938 444.992188 C 306.535156 443.742188 305.636719 442.464844 304.769531 441.167969 C 303.902344 439.871094 303.070312 438.554688 302.265625 437.21875 C 301.464844 435.878906 300.699219 434.523438 299.960938 433.148438 C 299.226562 431.773438 298.527344 430.382812 297.859375 428.972656 C 297.191406 427.5625 296.5625 426.136719 295.964844 424.695312 C 295.367188 423.253906 294.804688 421.800781 294.28125 420.332031 C 293.753906 418.863281 293.265625 417.382812 292.8125 415.890625 C 292.363281 414.398438 291.945312 412.898438 291.566406 411.382812 C 291.1875 409.871094 290.847656 408.351562 290.542969 406.820312 C 290.238281 405.292969 289.972656 403.757812 289.742188 402.214844 C 289.515625 400.671875 289.324219 399.125 289.171875 397.570312 C 289.015625 396.019531 288.902344 394.464844 288.824219 392.90625 C 288.75 391.351562 288.710938 389.792969 288.710938 388.234375 C 288.710938 386.671875 288.75 385.113281 288.824219 383.558594 C 288.902344 382 289.015625 380.445312 289.171875 378.894531 C 289.324219 377.339844 289.515625 375.792969 289.742188 374.25 C 289.972656 372.710938 290.238281 371.171875 290.542969 369.644531 C 290.847656 368.113281 291.1875 366.59375 291.566406 365.082031 C 291.945312 363.566406 292.363281 362.066406 292.8125 360.574219 C 293.265625 359.082031 293.753906 357.601562 294.28125 356.132812 C 294.804688 354.664062 295.367188 353.210938 295.964844 351.769531 C 296.5625 350.328125 297.191406 348.902344 297.859375 347.492188 C 298.527344 346.082031 299.226562 344.691406 299.960938 343.316406 C 300.699219 341.941406 301.464844 340.585938 302.265625 339.246094 C 303.070312 337.910156 303.902344 336.59375 304.769531 335.296875 C 305.636719 334 306.535156 332.726562 307.460938 331.472656 C 308.390625 330.21875 309.351562 328.992188 310.339844 327.785156 C 311.328125 326.578125 312.347656 325.398438 313.394531 324.242188 C 314.441406 323.089844 315.515625 321.960938 316.617188 320.855469 C 317.722656 319.753906 318.851562 318.679688 320.007812 317.632812 C 321.160156 316.585938 322.34375 315.566406 323.546875 314.578125 C 324.753906 313.589844 325.980469 312.628906 327.234375 311.699219 C 328.488281 310.769531 329.761719 309.875 331.058594 309.007812 C 332.355469 308.140625 333.671875 307.308594 335.007812 306.503906 C 336.347656 305.703125 337.703125 304.933594 339.078125 304.199219 C 340.453125 303.464844 341.847656 302.765625 343.253906 302.097656 C 344.664062 301.429688 346.089844 300.796875 347.53125 300.203125 C 348.972656 299.605469 350.425781 299.042969 351.894531 298.519531 C 353.363281 297.992188 354.84375 297.503906 356.335938 297.050781 C 357.828125 296.597656 359.332031 296.183594 360.84375 295.804688 C 362.355469 295.425781 363.875 295.085938 365.40625 294.78125 C 366.933594 294.476562 368.472656 294.210938 370.015625 293.980469 C 371.554688 293.75 373.101562 293.5625 374.65625 293.40625 C 376.207031 293.253906 377.761719 293.140625 379.320312 293.0625 C 380.875 292.988281 382.433594 292.949219 383.996094 292.949219 C 385.554688 292.949219 387.113281 292.992188 388.667969 293.070312 C 390.226562 293.148438 391.78125 293.261719 393.332031 293.417969 C 394.882812 293.570312 396.429688 293.765625 397.96875 293.992188 C 399.511719 294.222656 401.046875 294.492188 402.578125 294.796875 C 404.105469 295.101562 405.625 295.445312 407.136719 295.824219 C 408.648438 296.203125 410.152344 296.621094 411.640625 297.074219 C 413.132812 297.527344 414.613281 298.019531 416.082031 298.542969 C 417.546875 299.070312 419.003906 299.632812 420.441406 300.230469 C 421.882812 300.828125 423.304688 301.460938 424.714844 302.125 C 426.125 302.792969 427.515625 303.496094 428.890625 304.230469 C 430.265625 304.964844 431.621094 305.734375 432.957031 306.535156 C 434.292969 307.339844 435.609375 308.171875 436.90625 309.039062 C 438.203125 309.90625 439.476562 310.804688 440.730469 311.730469 C 441.980469 312.660156 443.210938 313.621094 444.414062 314.609375 C 445.617188 315.597656 446.796875 316.617188 447.953125 317.664062 C 449.109375 318.710938 450.238281 319.785156 451.339844 320.886719 C 452.441406 321.988281 453.515625 323.117188 454.5625 324.273438 C 455.609375 325.429688 456.628906 326.609375 457.617188 327.8125 C 458.605469 329.019531 459.566406 330.246094 460.496094 331.5 C 461.425781 332.75 462.320312 334.023438 463.1875 335.320312 C 464.054688 336.617188 464.890625 337.933594 465.691406 339.269531 C 466.492188 340.605469 467.261719 341.960938 467.996094 343.335938 C 468.730469 344.710938 469.433594 346.101562 470.101562 347.511719 C 470.769531 348.921875 471.398438 350.34375 471.996094 351.785156 C 472.59375 353.226562 473.15625 354.679688 473.683594 356.144531 C 474.207031 357.613281 474.699219 359.09375 475.152344 360.585938 C 475.605469 362.078125 476.023438 363.578125 476.402344 365.089844 C 476.78125 366.601562 477.125 368.121094 477.429688 369.652344 C 477.734375 371.179688 478.003906 372.714844 478.234375 374.257812 C 478.464844 375.796875 478.65625 377.34375 478.808594 378.894531 C 478.964844 380.449219 479.082031 382 479.160156 383.558594 C 479.238281 385.117188 479.277344 386.671875 479.277344 388.234375 Z M 421.628906 400.597656 L 394.582031 382.566406 L 394.582031 335.296875 C 394.582031 334.601562 394.515625 333.914062 394.378906 333.230469 C 394.242188 332.550781 394.042969 331.886719 393.777344 331.246094 C 393.511719 330.601562 393.183594 329.992188 392.796875 329.414062 C 392.410156 328.835938 391.972656 328.300781 391.480469 327.8125 C 390.988281 327.320312 390.453125 326.878906 389.875 326.496094 C 389.296875 326.109375 388.6875 325.78125 388.046875 325.515625 C 387.402344 325.25 386.742188 325.050781 386.058594 324.914062 C 385.378906 324.777344 384.691406 324.710938 383.996094 324.710938 C 383.300781 324.710938 382.609375 324.777344 381.929688 324.914062 C 381.246094 325.050781 380.585938 325.25 379.941406 325.515625 C 379.300781 325.78125 378.691406 326.109375 378.113281 326.496094 C 377.535156 326.878906 377 327.320312 376.507812 327.8125 C 376.015625 328.300781 375.578125 328.835938 375.191406 329.414062 C 374.804688 329.992188 374.480469 330.601562 374.214844 331.246094 C 373.949219 331.886719 373.746094 332.550781 373.609375 333.230469 C 373.476562 333.914062 373.40625 334.601562 373.40625 335.296875 L 373.40625 388.234375 C 373.40625 389.105469 373.515625 389.960938 373.726562 390.808594 C 373.9375 391.652344 374.25 392.460938 374.660156 393.226562 C 375.070312 393.996094 375.570312 394.703125 376.15625 395.347656 C 376.742188 395.992188 377.398438 396.558594 378.121094 397.039062 L 409.882812 418.214844 C 410.460938 418.59375 411.070312 418.910156 411.710938 419.167969 C 412.351562 419.425781 413.011719 419.621094 413.691406 419.75 C 414.371094 419.878906 415.054688 419.941406 415.746094 419.9375 C 416.4375 419.933594 417.121094 419.859375 417.796875 419.722656 C 418.472656 419.582031 419.128906 419.378906 419.769531 419.113281 C 420.40625 418.84375 421.011719 418.519531 421.582031 418.132812 C 422.15625 417.746094 422.6875 417.308594 423.171875 416.820312 C 423.660156 416.328125 424.097656 415.796875 424.480469 415.222656 C 424.863281 414.648438 425.1875 414.042969 425.453125 413.402344 C 425.714844 412.765625 425.914062 412.105469 426.050781 411.429688 C 426.1875 410.753906 426.257812 410.066406 426.257812 409.378906 C 426.257812 408.6875 426.195312 408.003906 426.0625 407.324219 C 425.929688 406.644531 425.734375 405.988281 425.472656 405.347656 C 425.210938 404.707031 424.890625 404.101562 424.511719 403.523438 C 424.128906 402.945312 423.695312 402.410156 423.210938 401.917969 C 422.726562 401.425781 422.199219 400.988281 421.628906 400.597656 Z M 421.628906 400.597656 " fill-opacity="1" fill-rule="nonzero"/></g></svg>