<svg xmlns="http://www.w3.org/2000/svg" xmlns:xlink="http://www.w3.org/1999/xlink" width="500" zoomAndPan="magnify" viewBox="0 0 375 374.999991" height="500" preserveAspectRatio="xMidYMid meet" version="1.0"><defs><clipPath id="6cec447692"><path d="M 75.3125 73.890625 L 252 73.890625 L 252 301.140625 L 75.3125 301.140625 Z M 75.3125 73.890625 " clip-rule="nonzero"/></clipPath><clipPath id="a273ff255f"><path d="M 222 106 L 299.5625 106 L 299.5625 176 L 222 176 Z M 222 106 " clip-rule="nonzero"/></clipPath></defs><g clip-path="url(#6cec447692)"><path fill="#38b6ff" d="M 251.222656 148.8125 L 245.914062 142.316406 L 211.917969 168.527344 L 183.410156 109.121094 L 166.507812 73.890625 L 152.214844 109.539062 L 90.425781 263.625 L 75.390625 301.113281 L 105.382812 275.136719 L 190.621094 201.308594 L 190.621094 201.304688 L 216.777344 178.652344 Z M 127.5 233.617188 L 167.667969 155.015625 L 184.753906 189.472656 Z M 127.5 233.617188 " fill-opacity="1" fill-rule="nonzero"/></g><path fill="#38b6ff" d="M 195.519531 211.1875 L 233.167969 287.117188 L 268.828125 287.117188 L 221.460938 188.40625 Z M 195.519531 211.1875 " fill-opacity="1" fill-rule="nonzero"/><g clip-path="url(#a273ff255f)"><path fill="#38b6ff" d="M 260.007812 175.101562 L 299.613281 106.007812 L 222.660156 126.523438 L 260.167969 136.332031 Z M 260.007812 175.101562 " fill-opacity="1" fill-rule="nonzero"/></g></svg>