<svg xmlns="http://www.w3.org/2000/svg" xmlns:xlink="http://www.w3.org/1999/xlink" width="1024" zoomAndPan="magnify" viewBox="0 0 768 767.999994" height="1024" preserveAspectRatio="xMidYMid meet" version="1.0"><defs><clipPath id="bb50cc9191"><path d="M 230.398438 233.089844 L 537.898438 233.089844 L 537.898438 332 L 230.398438 332 Z M 230.398438 233.089844 " clip-rule="nonzero"/></clipPath><clipPath id="e84112c5a1"><path d="M 230.398438 474 L 537.898438 474 L 537.898438 534.589844 L 230.398438 534.589844 Z M 230.398438 474 " clip-rule="nonzero"/></clipPath><clipPath id="1abfbcfd87"><path d="M 230.398438 353 L 381 353 L 381 453 L 230.398438 453 Z M 230.398438 353 " clip-rule="nonzero"/></clipPath><clipPath id="11189ec173"><path d="M 516 358 L 537.898438 358 L 537.898438 370 L 516 370 Z M 516 358 " clip-rule="nonzero"/></clipPath><clipPath id="db82dac63e"><path d="M 410 397 L 537.898438 397 L 537.898438 409 L 410 409 Z M 410 397 " clip-rule="nonzero"/></clipPath><clipPath id="044af9f5cc"><path d="M 445 436 L 537.898438 436 L 537.898438 448 L 445 448 Z M 445 436 " clip-rule="nonzero"/></clipPath></defs><g clip-path="url(#bb50cc9191)"><path fill="#ffffff" d="M 521.136719 233.15625 L 502.542969 233.15625 C 502.1875 233.160156 501.832031 233.199219 501.484375 233.273438 C 501.136719 233.347656 500.796875 233.453125 500.46875 233.59375 C 500.140625 233.734375 499.828125 233.902344 499.53125 234.105469 C 499.234375 234.304688 498.964844 234.53125 498.710938 234.789062 C 498.460938 235.042969 498.238281 235.316406 498.039062 235.617188 C 497.84375 235.914062 497.675781 236.226562 497.542969 236.558594 C 497.40625 236.886719 497.304688 237.230469 497.234375 237.578125 C 497.164062 237.929688 497.132812 238.285156 497.132812 238.640625 C 497.132812 238.996094 497.164062 239.351562 497.234375 239.703125 C 497.304688 240.050781 497.40625 240.390625 497.542969 240.722656 C 497.675781 241.054688 497.84375 241.367188 498.039062 241.664062 C 498.238281 241.964844 498.460938 242.238281 498.710938 242.492188 C 498.964844 242.746094 499.234375 242.976562 499.53125 243.175781 C 499.828125 243.378906 500.140625 243.546875 500.46875 243.6875 C 500.796875 243.828125 501.136719 243.933594 501.484375 244.007812 C 501.832031 244.082031 502.1875 244.121094 502.542969 244.125 L 521.136719 244.125 C 521.5 244.125 521.855469 244.160156 522.207031 244.230469 C 522.5625 244.300781 522.90625 244.40625 523.238281 244.542969 C 523.570312 244.683594 523.886719 244.851562 524.183594 245.050781 C 524.484375 245.25 524.761719 245.480469 525.015625 245.734375 C 525.269531 245.988281 525.5 246.265625 525.699219 246.566406 C 525.898438 246.863281 526.066406 247.179688 526.207031 247.511719 C 526.34375 247.84375 526.449219 248.1875 526.519531 248.542969 C 526.589844 248.894531 526.625 249.25 526.625 249.613281 L 526.625 315.492188 C 526.625 315.851562 526.589844 316.210938 526.519531 316.5625 C 526.449219 316.914062 526.34375 317.257812 526.207031 317.589844 C 526.066406 317.925781 525.898438 318.242188 525.699219 318.539062 C 525.5 318.839844 525.269531 319.117188 525.015625 319.371094 C 524.761719 319.625 524.484375 319.851562 524.183594 320.054688 C 523.886719 320.253906 523.570312 320.421875 523.238281 320.558594 C 522.90625 320.699219 522.5625 320.800781 522.207031 320.871094 C 521.855469 320.941406 521.5 320.976562 521.136719 320.976562 L 246.855469 320.976562 C 246.496094 320.976562 246.140625 320.941406 245.785156 320.871094 C 245.433594 320.800781 245.089844 320.699219 244.757812 320.558594 C 244.425781 320.421875 244.109375 320.253906 243.808594 320.050781 C 243.511719 319.851562 243.234375 319.625 242.980469 319.371094 C 242.726562 319.117188 242.496094 318.839844 242.296875 318.539062 C 242.097656 318.238281 241.929688 317.925781 241.789062 317.589844 C 241.652344 317.257812 241.546875 316.914062 241.476562 316.5625 C 241.40625 316.210938 241.371094 315.851562 241.371094 315.492188 L 241.371094 249.613281 C 241.371094 249.25 241.40625 248.894531 241.476562 248.542969 C 241.546875 248.1875 241.652344 247.847656 241.789062 247.511719 C 241.929688 247.179688 242.097656 246.863281 242.296875 246.566406 C 242.496094 246.265625 242.726562 245.988281 242.980469 245.734375 C 243.234375 245.480469 243.511719 245.253906 243.808594 245.050781 C 244.109375 244.851562 244.425781 244.683594 244.757812 244.546875 C 245.089844 244.40625 245.433594 244.304688 245.785156 244.230469 C 246.140625 244.160156 246.496094 244.125 246.855469 244.125 L 480.601562 244.125 C 480.960938 244.125 481.320312 244.089844 481.671875 244.019531 C 482.023438 243.949219 482.367188 243.847656 482.699219 243.707031 C 483.035156 243.570312 483.351562 243.402344 483.648438 243.203125 C 483.949219 243 484.226562 242.773438 484.480469 242.519531 C 484.734375 242.265625 484.960938 241.988281 485.164062 241.6875 C 485.363281 241.386719 485.53125 241.074219 485.667969 240.738281 C 485.808594 240.40625 485.910156 240.0625 485.980469 239.710938 C 486.050781 239.355469 486.085938 239 486.085938 238.640625 C 486.085938 238.28125 486.050781 237.921875 485.980469 237.570312 C 485.910156 237.21875 485.808594 236.875 485.667969 236.542969 C 485.53125 236.207031 485.363281 235.890625 485.164062 235.59375 C 484.960938 235.292969 484.734375 235.015625 484.480469 234.761719 C 484.226562 234.507812 483.949219 234.28125 483.648438 234.078125 C 483.351562 233.878906 483.035156 233.710938 482.699219 233.574219 C 482.367188 233.433594 482.023438 233.332031 481.671875 233.261719 C 481.320312 233.191406 480.960938 233.15625 480.601562 233.15625 L 246.855469 233.15625 C 246.316406 233.15625 245.78125 233.183594 245.246094 233.234375 C 244.707031 233.289062 244.175781 233.367188 243.648438 233.472656 C 243.121094 233.578125 242.597656 233.710938 242.082031 233.867188 C 241.566406 234.023438 241.058594 234.207031 240.5625 234.414062 C 240.0625 234.617188 239.578125 234.847656 239.101562 235.101562 C 238.628906 235.359375 238.167969 235.632812 237.71875 235.933594 C 237.269531 236.234375 236.839844 236.554688 236.421875 236.894531 C 236.003906 237.238281 235.605469 237.597656 235.226562 237.980469 C 234.84375 238.359375 234.484375 238.761719 234.140625 239.175781 C 233.800781 239.59375 233.476562 240.023438 233.179688 240.472656 C 232.878906 240.921875 232.601562 241.382812 232.347656 241.859375 C 232.09375 242.332031 231.863281 242.820312 231.65625 243.316406 C 231.449219 243.8125 231.269531 244.320312 231.113281 244.835938 C 230.957031 245.351562 230.824219 245.875 230.71875 246.402344 C 230.613281 246.929688 230.535156 247.464844 230.480469 248 C 230.425781 248.535156 230.402344 249.074219 230.398438 249.613281 L 230.398438 315.492188 C 230.402344 316.03125 230.425781 316.570312 230.480469 317.105469 C 230.535156 317.640625 230.613281 318.171875 230.71875 318.703125 C 230.824219 319.230469 230.957031 319.753906 231.113281 320.269531 C 231.269531 320.785156 231.449219 321.289062 231.65625 321.789062 C 231.863281 322.285156 232.09375 322.773438 232.347656 323.246094 C 232.601562 323.722656 232.878906 324.183594 233.179688 324.632812 C 233.476562 325.078125 233.800781 325.511719 234.140625 325.929688 C 234.484375 326.34375 234.84375 326.742188 235.226562 327.125 C 235.605469 327.503906 236.003906 327.867188 236.421875 328.207031 C 236.839844 328.550781 237.269531 328.871094 237.71875 329.171875 C 238.167969 329.46875 238.628906 329.746094 239.101562 330 C 239.578125 330.253906 240.0625 330.484375 240.5625 330.691406 C 241.058594 330.898438 241.566406 331.082031 242.082031 331.238281 C 242.597656 331.394531 243.121094 331.523438 243.648438 331.628906 C 244.175781 331.734375 244.707031 331.816406 245.246094 331.867188 C 245.78125 331.921875 246.316406 331.949219 246.855469 331.949219 L 521.136719 331.949219 C 521.675781 331.949219 522.214844 331.921875 522.75 331.867188 C 523.285156 331.816406 523.820312 331.734375 524.347656 331.628906 C 524.875 331.523438 525.398438 331.394531 525.914062 331.238281 C 526.429688 331.082031 526.9375 330.898438 527.433594 330.691406 C 527.929688 330.484375 528.417969 330.253906 528.894531 330 C 529.367188 329.746094 529.828125 329.46875 530.277344 329.171875 C 530.726562 328.871094 531.15625 328.550781 531.574219 328.207031 C 531.988281 327.867188 532.390625 327.503906 532.769531 327.125 C 533.152344 326.742188 533.511719 326.34375 533.855469 325.929688 C 534.195312 325.511719 534.515625 325.078125 534.816406 324.632812 C 535.117188 324.183594 535.394531 323.722656 535.648438 323.246094 C 535.902344 322.773438 536.132812 322.285156 536.335938 321.789062 C 536.542969 321.289062 536.726562 320.785156 536.882812 320.269531 C 537.039062 319.753906 537.171875 319.230469 537.277344 318.703125 C 537.382812 318.171875 537.460938 317.640625 537.515625 317.105469 C 537.566406 316.570312 537.59375 316.03125 537.59375 315.492188 L 537.59375 249.613281 C 537.59375 249.074219 537.566406 248.535156 537.515625 248 C 537.460938 247.464844 537.382812 246.929688 537.277344 246.402344 C 537.171875 245.875 537.039062 245.351562 536.882812 244.835938 C 536.726562 244.320312 536.542969 243.8125 536.335938 243.316406 C 536.132812 242.820312 535.902344 242.332031 535.648438 241.859375 C 535.394531 241.382812 535.117188 240.921875 534.816406 240.472656 C 534.515625 240.023438 534.195312 239.59375 533.855469 239.175781 C 533.511719 238.761719 533.152344 238.359375 532.769531 237.980469 C 532.390625 237.597656 531.988281 237.238281 531.574219 236.894531 C 531.15625 236.554688 530.726562 236.234375 530.277344 235.933594 C 529.828125 235.632812 529.367188 235.359375 528.894531 235.101562 C 528.417969 234.847656 527.929688 234.617188 527.433594 234.414062 C 526.9375 234.207031 526.429688 234.023438 525.914062 233.867188 C 525.398438 233.710938 524.875 233.578125 524.347656 233.472656 C 523.820312 233.367188 523.285156 233.289062 522.75 233.234375 C 522.214844 233.183594 521.675781 233.15625 521.136719 233.15625 Z M 521.136719 233.15625 " fill-opacity="1" fill-rule="nonzero"/></g><g clip-path="url(#e84112c5a1)"><path fill="#ffffff" d="M 521.136719 474.164062 L 246.855469 474.164062 C 246.316406 474.164062 245.78125 474.191406 245.246094 474.246094 C 244.707031 474.296875 244.175781 474.378906 243.648438 474.484375 C 243.121094 474.589844 242.597656 474.71875 242.082031 474.875 C 241.566406 475.03125 241.058594 475.214844 240.5625 475.421875 C 240.0625 475.628906 239.578125 475.859375 239.101562 476.113281 C 238.628906 476.367188 238.167969 476.644531 237.71875 476.941406 C 237.269531 477.242188 236.839844 477.5625 236.421875 477.90625 C 236.003906 478.246094 235.605469 478.609375 235.226562 478.988281 C 234.84375 479.371094 234.484375 479.769531 234.140625 480.183594 C 233.800781 480.601562 233.476562 481.035156 233.179688 481.480469 C 232.878906 481.929688 232.601562 482.390625 232.347656 482.867188 C 232.09375 483.339844 231.863281 483.828125 231.65625 484.324219 C 231.449219 484.824219 231.269531 485.328125 231.113281 485.84375 C 230.957031 486.359375 230.824219 486.882812 230.71875 487.410156 C 230.613281 487.941406 230.535156 488.472656 230.480469 489.007812 C 230.425781 489.542969 230.402344 490.082031 230.398438 490.621094 L 230.398438 518.378906 C 230.402344 518.917969 230.425781 519.457031 230.480469 519.992188 C 230.535156 520.53125 230.613281 521.0625 230.71875 521.589844 C 230.824219 522.117188 230.957031 522.640625 231.113281 523.15625 C 231.269531 523.671875 231.449219 524.179688 231.65625 524.675781 C 231.863281 525.171875 232.09375 525.660156 232.347656 526.136719 C 232.601562 526.609375 232.878906 527.070312 233.179688 527.519531 C 233.476562 527.96875 233.800781 528.398438 234.140625 528.816406 C 234.484375 529.234375 234.84375 529.632812 235.226562 530.011719 C 235.605469 530.394531 236.003906 530.753906 236.421875 531.097656 C 236.839844 531.4375 237.269531 531.757812 237.71875 532.058594 C 238.167969 532.359375 238.628906 532.636719 239.101562 532.890625 C 239.578125 533.144531 240.0625 533.375 240.5625 533.582031 C 241.058594 533.785156 241.566406 533.96875 242.082031 534.125 C 242.597656 534.28125 243.121094 534.414062 243.648438 534.519531 C 244.175781 534.625 244.707031 534.703125 245.246094 534.757812 C 245.78125 534.808594 246.316406 534.835938 246.855469 534.835938 L 521.136719 534.835938 C 521.675781 534.835938 522.214844 534.808594 522.75 534.757812 C 523.285156 534.703125 523.820312 534.625 524.347656 534.519531 C 524.875 534.414062 525.398438 534.28125 525.914062 534.125 C 526.429688 533.96875 526.9375 533.785156 527.433594 533.582031 C 527.929688 533.375 528.417969 533.144531 528.890625 532.890625 C 529.367188 532.636719 529.828125 532.359375 530.277344 532.058594 C 530.726562 531.757812 531.15625 531.4375 531.574219 531.097656 C 531.988281 530.753906 532.390625 530.394531 532.769531 530.011719 C 533.152344 529.632812 533.511719 529.234375 533.855469 528.816406 C 534.195312 528.398438 534.515625 527.96875 534.816406 527.519531 C 535.117188 527.070312 535.390625 526.609375 535.648438 526.136719 C 535.902344 525.660156 536.132812 525.171875 536.335938 524.675781 C 536.542969 524.179688 536.726562 523.671875 536.882812 523.15625 C 537.039062 522.640625 537.171875 522.117188 537.277344 521.589844 C 537.382812 521.0625 537.460938 520.53125 537.515625 519.992188 C 537.566406 519.457031 537.59375 518.917969 537.59375 518.378906 L 537.59375 490.621094 C 537.59375 490.082031 537.566406 489.542969 537.515625 489.007812 C 537.460938 488.472656 537.382812 487.941406 537.277344 487.410156 C 537.171875 486.882812 537.039062 486.359375 536.882812 485.84375 C 536.726562 485.328125 536.542969 484.824219 536.335938 484.324219 C 536.132812 483.828125 535.902344 483.339844 535.648438 482.867188 C 535.390625 482.390625 535.117188 481.929688 534.816406 481.480469 C 534.515625 481.035156 534.195312 480.601562 533.855469 480.183594 C 533.511719 479.769531 533.152344 479.371094 532.769531 478.988281 C 532.390625 478.609375 531.988281 478.246094 531.574219 477.90625 C 531.15625 477.5625 530.726562 477.242188 530.277344 476.941406 C 529.828125 476.644531 529.367188 476.367188 528.890625 476.113281 C 528.417969 475.859375 527.929688 475.628906 527.433594 475.421875 C 526.9375 475.214844 526.429688 475.03125 525.914062 474.875 C 525.398438 474.71875 524.875 474.589844 524.347656 474.484375 C 523.820312 474.378906 523.285156 474.296875 522.75 474.246094 C 522.214844 474.191406 521.675781 474.164062 521.136719 474.164062 Z M 526.625 518.378906 C 526.625 518.742188 526.589844 519.097656 526.519531 519.449219 C 526.449219 519.804688 526.34375 520.148438 526.207031 520.480469 C 526.066406 520.8125 525.898438 521.128906 525.699219 521.425781 C 525.5 521.726562 525.269531 522.003906 525.015625 522.257812 C 524.761719 522.511719 524.484375 522.742188 524.183594 522.941406 C 523.886719 523.140625 523.570312 523.308594 523.238281 523.449219 C 522.90625 523.585938 522.5625 523.691406 522.207031 523.761719 C 521.855469 523.832031 521.5 523.867188 521.136719 523.867188 L 246.855469 523.867188 C 246.496094 523.867188 246.140625 523.832031 245.785156 523.761719 C 245.433594 523.691406 245.089844 523.585938 244.757812 523.449219 C 244.425781 523.308594 244.109375 523.140625 243.808594 522.941406 C 243.511719 522.738281 243.234375 522.511719 242.980469 522.257812 C 242.726562 522.003906 242.496094 521.726562 242.296875 521.425781 C 242.097656 521.128906 241.929688 520.8125 241.789062 520.480469 C 241.652344 520.148438 241.546875 519.804688 241.476562 519.449219 C 241.40625 519.097656 241.371094 518.742188 241.371094 518.378906 L 241.371094 490.621094 C 241.371094 490.261719 241.40625 489.902344 241.476562 489.550781 C 241.546875 489.199219 241.652344 488.855469 241.789062 488.523438 C 241.929688 488.1875 242.097656 487.875 242.296875 487.574219 C 242.496094 487.273438 242.726562 486.996094 242.980469 486.742188 C 243.234375 486.488281 243.511719 486.261719 243.808594 486.0625 C 244.109375 485.859375 244.425781 485.691406 244.757812 485.554688 C 245.089844 485.414062 245.433594 485.3125 245.785156 485.242188 C 246.140625 485.171875 246.496094 485.136719 246.855469 485.136719 L 521.136719 485.136719 C 521.5 485.136719 521.855469 485.171875 522.207031 485.242188 C 522.5625 485.3125 522.90625 485.414062 523.238281 485.554688 C 523.570312 485.691406 523.886719 485.859375 524.183594 486.058594 C 524.484375 486.261719 524.761719 486.488281 525.015625 486.742188 C 525.269531 486.996094 525.5 487.273438 525.699219 487.574219 C 525.898438 487.875 526.066406 488.1875 526.207031 488.523438 C 526.34375 488.855469 526.449219 489.199219 526.519531 489.550781 C 526.589844 489.902344 526.625 490.261719 526.625 490.621094 Z M 526.625 518.378906 " fill-opacity="1" fill-rule="nonzero"/></g><g clip-path="url(#1abfbcfd87)"><path fill="#ffffff" d="M 246.855469 452.414062 L 264.847656 452.414062 C 265.207031 452.414062 265.566406 452.378906 265.917969 452.308594 C 266.273438 452.238281 266.613281 452.132812 266.949219 451.996094 C 267.28125 451.859375 267.597656 451.691406 267.894531 451.488281 C 268.195312 451.289062 268.472656 451.0625 268.726562 450.808594 C 268.980469 450.550781 269.210938 450.277344 269.410156 449.976562 C 269.609375 449.675781 269.777344 449.359375 269.917969 449.027344 C 270.054688 448.695312 270.160156 448.351562 270.230469 448 C 270.300781 447.644531 270.335938 447.289062 270.335938 446.929688 C 270.335938 446.566406 270.300781 446.210938 270.230469 445.859375 C 270.160156 445.503906 270.054688 445.160156 269.917969 444.828125 C 269.777344 444.496094 269.609375 444.179688 269.410156 443.878906 C 269.210938 443.582031 268.980469 443.304688 268.726562 443.050781 C 268.472656 442.792969 268.195312 442.566406 267.894531 442.367188 C 267.597656 442.167969 267.28125 442 266.949219 441.859375 C 266.613281 441.722656 266.273438 441.617188 265.917969 441.546875 C 265.566406 441.476562 265.207031 441.441406 264.847656 441.441406 L 246.855469 441.441406 C 246.496094 441.441406 246.140625 441.40625 245.785156 441.335938 C 245.433594 441.265625 245.089844 441.160156 244.757812 441.023438 C 244.425781 440.886719 244.109375 440.714844 243.808594 440.515625 C 243.511719 440.316406 243.234375 440.089844 242.980469 439.835938 C 242.726562 439.578125 242.496094 439.304688 242.296875 439.003906 C 242.097656 438.703125 241.929688 438.386719 241.789062 438.054688 C 241.652344 437.722656 241.546875 437.378906 241.476562 437.027344 C 241.40625 436.671875 241.371094 436.316406 241.371094 435.957031 L 241.371094 370.128906 C 241.371094 369.769531 241.40625 369.414062 241.476562 369.058594 C 241.546875 368.707031 241.652344 368.363281 241.789062 368.03125 C 241.929688 367.699219 242.097656 367.382812 242.296875 367.082031 C 242.496094 366.785156 242.726562 366.507812 242.980469 366.253906 C 243.234375 365.996094 243.511719 365.769531 243.808594 365.570312 C 244.109375 365.371094 244.425781 365.199219 244.757812 365.0625 C 245.089844 364.925781 245.433594 364.820312 245.785156 364.75 C 246.140625 364.679688 246.496094 364.644531 246.855469 364.644531 L 364.359375 364.644531 C 364.71875 364.644531 365.074219 364.679688 365.429688 364.75 C 365.78125 364.820312 366.125 364.925781 366.457031 365.0625 C 366.789062 365.199219 367.105469 365.371094 367.40625 365.570312 C 367.703125 365.769531 367.980469 365.996094 368.234375 366.253906 C 368.492188 366.507812 368.71875 366.785156 368.917969 367.082031 C 369.117188 367.382812 369.289062 367.699219 369.425781 368.03125 C 369.5625 368.363281 369.667969 368.707031 369.738281 369.058594 C 369.808594 369.414062 369.84375 369.769531 369.84375 370.128906 L 369.84375 435.957031 C 369.84375 436.316406 369.808594 436.671875 369.738281 437.027344 C 369.667969 437.378906 369.5625 437.722656 369.425781 438.054688 C 369.289062 438.386719 369.117188 438.703125 368.917969 439.003906 C 368.71875 439.304688 368.492188 439.578125 368.234375 439.835938 C 367.980469 440.089844 367.703125 440.316406 367.40625 440.515625 C 367.105469 440.714844 366.789062 440.886719 366.457031 441.023438 C 366.125 441.160156 365.78125 441.265625 365.429688 441.335938 C 365.074219 441.40625 364.71875 441.441406 364.359375 441.441406 L 286.792969 441.441406 C 286.433594 441.449219 286.082031 441.488281 285.730469 441.5625 C 285.382812 441.636719 285.042969 441.742188 284.714844 441.882812 C 284.386719 442.023438 284.074219 442.191406 283.78125 442.394531 C 283.484375 442.59375 283.210938 442.820312 282.960938 443.078125 C 282.710938 443.332031 282.488281 443.605469 282.289062 443.90625 C 282.09375 444.203125 281.929688 444.515625 281.792969 444.847656 C 281.65625 445.175781 281.554688 445.515625 281.484375 445.867188 C 281.417969 446.21875 281.382812 446.570312 281.382812 446.929688 C 281.382812 447.285156 281.417969 447.640625 281.484375 447.988281 C 281.554688 448.339844 281.65625 448.679688 281.792969 449.011719 C 281.929688 449.339844 282.09375 449.652344 282.289062 449.953125 C 282.488281 450.25 282.710938 450.527344 282.960938 450.78125 C 283.210938 451.035156 283.484375 451.261719 283.78125 451.464844 C 284.074219 451.664062 284.386719 451.835938 284.714844 451.972656 C 285.042969 452.113281 285.382812 452.222656 285.730469 452.296875 C 286.082031 452.371094 286.433594 452.410156 286.792969 452.414062 L 364.359375 452.414062 C 364.898438 452.414062 365.433594 452.386719 365.972656 452.332031 C 366.507812 452.28125 367.039062 452.199219 367.566406 452.09375 C 368.097656 451.988281 368.617188 451.859375 369.132812 451.703125 C 369.648438 451.542969 370.15625 451.363281 370.652344 451.15625 C 371.152344 450.949219 371.636719 450.71875 372.113281 450.464844 C 372.589844 450.210938 373.050781 449.933594 373.496094 449.636719 C 373.945312 449.335938 374.378906 449.015625 374.792969 448.671875 C 375.210938 448.332031 375.609375 447.96875 375.988281 447.589844 C 376.371094 447.207031 376.734375 446.808594 377.074219 446.390625 C 377.417969 445.976562 377.738281 445.542969 378.035156 445.097656 C 378.335938 444.648438 378.613281 444.1875 378.867188 443.710938 C 379.121094 443.234375 379.351562 442.75 379.558594 442.253906 C 379.765625 441.753906 379.945312 441.246094 380.101562 440.730469 C 380.257812 440.214844 380.390625 439.695312 380.496094 439.167969 C 380.601562 438.636719 380.679688 438.105469 380.734375 437.570312 C 380.789062 437.035156 380.816406 436.496094 380.816406 435.957031 L 380.816406 370.128906 C 380.816406 369.589844 380.789062 369.054688 380.734375 368.515625 C 380.679688 367.980469 380.601562 367.449219 380.496094 366.921875 C 380.390625 366.390625 380.257812 365.871094 380.101562 365.355469 C 379.945312 364.839844 379.765625 364.332031 379.558594 363.835938 C 379.351562 363.335938 379.121094 362.851562 378.867188 362.375 C 378.613281 361.898438 378.335938 361.4375 378.035156 360.992188 C 377.738281 360.542969 377.417969 360.109375 377.074219 359.695312 C 376.734375 359.277344 376.371094 358.878906 375.988281 358.496094 C 375.609375 358.117188 375.210938 357.753906 374.792969 357.414062 C 374.378906 357.070312 373.945312 356.75 373.496094 356.453125 C 373.050781 356.152344 372.589844 355.875 372.113281 355.621094 C 371.636719 355.367188 371.152344 355.136719 370.652344 354.929688 C 370.15625 354.722656 369.648438 354.542969 369.132812 354.386719 C 368.617188 354.226562 368.097656 354.097656 367.566406 353.992188 C 367.039062 353.886719 366.507812 353.808594 365.972656 353.753906 C 365.433594 353.699219 364.898438 353.671875 364.359375 353.671875 L 246.855469 353.671875 C 246.316406 353.671875 245.78125 353.699219 245.246094 353.753906 C 244.707031 353.808594 244.175781 353.886719 243.648438 353.992188 C 243.121094 354.097656 242.597656 354.226562 242.082031 354.386719 C 241.566406 354.542969 241.058594 354.722656 240.5625 354.929688 C 240.0625 355.136719 239.578125 355.367188 239.101562 355.621094 C 238.628906 355.875 238.167969 356.152344 237.71875 356.453125 C 237.269531 356.75 236.839844 357.070312 236.421875 357.414062 C 236.003906 357.753906 235.605469 358.117188 235.226562 358.496094 C 234.84375 358.878906 234.484375 359.277344 234.140625 359.695312 C 233.800781 360.109375 233.476562 360.542969 233.179688 360.992188 C 232.878906 361.4375 232.601562 361.898438 232.347656 362.375 C 232.09375 362.851562 231.863281 363.335938 231.65625 363.835938 C 231.449219 364.332031 231.269531 364.839844 231.113281 365.355469 C 230.957031 365.871094 230.824219 366.390625 230.71875 366.921875 C 230.613281 367.449219 230.535156 367.980469 230.480469 368.515625 C 230.425781 369.054688 230.402344 369.589844 230.398438 370.128906 L 230.398438 435.957031 C 230.402344 436.496094 230.425781 437.035156 230.480469 437.570312 C 230.535156 438.105469 230.613281 438.636719 230.71875 439.167969 C 230.824219 439.695312 230.957031 440.214844 231.113281 440.730469 C 231.269531 441.246094 231.449219 441.753906 231.65625 442.253906 C 231.863281 442.75 232.09375 443.234375 232.347656 443.710938 C 232.601562 444.1875 232.878906 444.648438 233.179688 445.097656 C 233.476562 445.542969 233.800781 445.976562 234.140625 446.390625 C 234.484375 446.808594 234.84375 447.207031 235.226562 447.589844 C 235.605469 447.96875 236.003906 448.332031 236.421875 448.671875 C 236.839844 449.015625 237.269531 449.335938 237.71875 449.636719 C 238.167969 449.933594 238.628906 450.210938 239.101562 450.464844 C 239.578125 450.71875 240.0625 450.949219 240.5625 451.15625 C 241.058594 451.363281 241.566406 451.542969 242.082031 451.703125 C 242.597656 451.859375 243.121094 451.988281 243.648438 452.09375 C 244.175781 452.199219 244.707031 452.28125 245.246094 452.332031 C 245.78125 452.386719 246.316406 452.414062 246.855469 452.414062 Z M 246.855469 452.414062 " fill-opacity="1" fill-rule="nonzero"/></g><g clip-path="url(#11189ec173)"><path fill="#ffffff" d="M 532.109375 358.664062 L 521.410156 358.664062 C 521.054688 358.671875 520.703125 358.710938 520.351562 358.785156 C 520.003906 358.859375 519.664062 358.964844 519.335938 359.105469 C 519.007812 359.246094 518.695312 359.414062 518.402344 359.617188 C 518.105469 359.816406 517.832031 360.046875 517.582031 360.300781 C 517.332031 360.554688 517.109375 360.828125 516.910156 361.128906 C 516.714844 361.425781 516.546875 361.738281 516.414062 362.070312 C 516.277344 362.398438 516.175781 362.738281 516.105469 363.089844 C 516.039062 363.441406 516.003906 363.792969 516.003906 364.152344 C 516.003906 364.507812 516.039062 364.863281 516.105469 365.210938 C 516.175781 365.5625 516.277344 365.902344 516.414062 366.234375 C 516.550781 366.5625 516.714844 366.878906 516.910156 367.175781 C 517.109375 367.472656 517.332031 367.75 517.582031 368.003906 C 517.832031 368.257812 518.105469 368.484375 518.402344 368.683594 C 518.695312 368.886719 519.007812 369.058594 519.335938 369.195312 C 519.664062 369.335938 520.003906 369.445312 520.351562 369.519531 C 520.703125 369.59375 521.054688 369.632812 521.410156 369.636719 L 532.109375 369.636719 C 532.464844 369.632812 532.820312 369.59375 533.167969 369.519531 C 533.519531 369.445312 533.855469 369.335938 534.183594 369.195312 C 534.511719 369.058594 534.824219 368.886719 535.121094 368.683594 C 535.414062 368.484375 535.6875 368.257812 535.9375 368.003906 C 536.1875 367.75 536.414062 367.472656 536.609375 367.175781 C 536.804688 366.875 536.972656 366.5625 537.109375 366.234375 C 537.242188 365.902344 537.34375 365.5625 537.414062 365.210938 C 537.484375 364.863281 537.519531 364.507812 537.519531 364.152344 C 537.519531 363.792969 537.484375 363.441406 537.414062 363.089844 C 537.34375 362.738281 537.242188 362.398438 537.109375 362.070312 C 536.972656 361.738281 536.804688 361.425781 536.609375 361.128906 C 536.414062 360.828125 536.1875 360.554688 535.9375 360.300781 C 535.6875 360.046875 535.414062 359.816406 535.121094 359.617188 C 534.824219 359.414062 534.511719 359.246094 534.183594 359.105469 C 533.855469 358.964844 533.519531 358.859375 533.167969 358.785156 C 532.820312 358.710938 532.464844 358.671875 532.109375 358.664062 Z M 532.109375 358.664062 " fill-opacity="1" fill-rule="nonzero"/></g><path fill="#ffffff" d="M 415.433594 369.636719 L 499.46875 369.636719 C 499.824219 369.632812 500.179688 369.59375 500.527344 369.519531 C 500.878906 369.445312 501.214844 369.335938 501.542969 369.195312 C 501.871094 369.058594 502.183594 368.886719 502.480469 368.683594 C 502.773438 368.484375 503.046875 368.257812 503.296875 368.003906 C 503.546875 367.75 503.773438 367.472656 503.96875 367.175781 C 504.164062 366.875 504.332031 366.5625 504.46875 366.234375 C 504.601562 365.902344 504.703125 365.5625 504.773438 365.210938 C 504.84375 364.863281 504.878906 364.507812 504.878906 364.152344 C 504.878906 363.792969 504.84375 363.441406 504.773438 363.089844 C 504.703125 362.738281 504.601562 362.398438 504.46875 362.070312 C 504.332031 361.738281 504.164062 361.425781 503.96875 361.128906 C 503.773438 360.828125 503.546875 360.554688 503.296875 360.300781 C 503.046875 360.046875 502.773438 359.816406 502.480469 359.617188 C 502.183594 359.414062 501.871094 359.246094 501.542969 359.105469 C 501.214844 358.964844 500.878906 358.859375 500.527344 358.785156 C 500.179688 358.710938 499.824219 358.671875 499.46875 358.664062 L 415.433594 358.664062 C 415.074219 358.671875 414.722656 358.710938 414.375 358.785156 C 414.023438 358.859375 413.6875 358.964844 413.359375 359.105469 C 413.03125 359.246094 412.71875 359.417969 412.425781 359.617188 C 412.128906 359.820312 411.855469 360.046875 411.605469 360.300781 C 411.355469 360.554688 411.132812 360.832031 410.9375 361.128906 C 410.738281 361.425781 410.574219 361.738281 410.4375 362.070312 C 410.300781 362.402344 410.199219 362.742188 410.132812 363.089844 C 410.0625 363.441406 410.027344 363.792969 410.027344 364.152344 C 410.027344 364.507812 410.0625 364.859375 410.132812 365.210938 C 410.199219 365.5625 410.300781 365.902344 410.4375 366.230469 C 410.574219 366.5625 410.738281 366.875 410.9375 367.171875 C 411.132812 367.472656 411.355469 367.746094 411.605469 368 C 411.855469 368.253906 412.128906 368.484375 412.425781 368.683594 C 412.71875 368.886719 413.03125 369.054688 413.359375 369.195312 C 413.6875 369.335938 414.023438 369.441406 414.375 369.515625 C 414.722656 369.589844 415.074219 369.632812 415.433594 369.636719 Z M 415.433594 369.636719 " fill-opacity="1" fill-rule="nonzero"/><g clip-path="url(#db82dac63e)"><path fill="#ffffff" d="M 532.109375 397.558594 L 415.410156 397.558594 C 415.054688 397.5625 414.703125 397.601562 414.351562 397.675781 C 414.003906 397.75 413.664062 397.859375 413.335938 398 C 413.007812 398.140625 412.699219 398.308594 412.402344 398.511719 C 412.109375 398.710938 411.835938 398.9375 411.585938 399.191406 C 411.335938 399.445312 411.109375 399.722656 410.914062 400.019531 C 410.71875 400.320312 410.550781 400.632812 410.417969 400.960938 C 410.28125 401.292969 410.179688 401.632812 410.109375 401.984375 C 410.042969 402.332031 410.007812 402.6875 410.007812 403.042969 C 410.007812 403.398438 410.042969 403.753906 410.109375 404.105469 C 410.179688 404.453125 410.28125 404.792969 410.417969 405.125 C 410.550781 405.453125 410.71875 405.769531 410.914062 406.066406 C 411.109375 406.363281 411.335938 406.640625 411.585938 406.894531 C 411.835938 407.148438 412.109375 407.375 412.402344 407.578125 C 412.699219 407.777344 413.007812 407.949219 413.335938 408.089844 C 413.664062 408.226562 414.003906 408.335938 414.351562 408.410156 C 414.703125 408.484375 415.054688 408.523438 415.410156 408.527344 L 532.109375 408.527344 C 532.464844 408.523438 532.820312 408.484375 533.167969 408.410156 C 533.515625 408.335938 533.855469 408.226562 534.183594 408.089844 C 534.511719 407.949219 534.824219 407.777344 535.117188 407.578125 C 535.414062 407.375 535.6875 407.148438 535.9375 406.894531 C 536.1875 406.640625 536.410156 406.363281 536.605469 406.066406 C 536.804688 405.769531 536.96875 405.453125 537.105469 405.125 C 537.238281 404.792969 537.34375 404.453125 537.410156 404.105469 C 537.480469 403.753906 537.515625 403.398438 537.515625 403.042969 C 537.515625 402.6875 537.480469 402.332031 537.410156 401.984375 C 537.34375 401.632812 537.238281 401.292969 537.105469 400.960938 C 536.96875 400.632812 536.804688 400.320312 536.605469 400.019531 C 536.410156 399.722656 536.1875 399.445312 535.9375 399.191406 C 535.6875 398.9375 535.414062 398.710938 535.117188 398.511719 C 534.824219 398.308594 534.511719 398.136719 534.183594 398 C 533.855469 397.859375 533.515625 397.75 533.167969 397.675781 C 532.820312 397.601562 532.464844 397.5625 532.109375 397.558594 Z M 532.109375 397.558594 " fill-opacity="1" fill-rule="nonzero"/></g><g clip-path="url(#044af9f5cc)"><path fill="#ffffff" d="M 532.109375 436.457031 L 451.03125 436.457031 C 450.671875 436.460938 450.320312 436.5 449.972656 436.574219 C 449.621094 436.648438 449.285156 436.753906 448.957031 436.894531 C 448.628906 437.035156 448.316406 437.207031 448.023438 437.40625 C 447.726562 437.609375 447.453125 437.835938 447.203125 438.089844 C 446.953125 438.34375 446.730469 438.621094 446.535156 438.917969 C 446.335938 439.214844 446.171875 439.53125 446.035156 439.859375 C 445.902344 440.191406 445.796875 440.53125 445.730469 440.878906 C 445.660156 441.230469 445.625 441.585938 445.625 441.941406 C 445.625 442.296875 445.660156 442.652344 445.730469 443 C 445.796875 443.351562 445.902344 443.691406 446.035156 444.023438 C 446.171875 444.351562 446.335938 444.664062 446.535156 444.964844 C 446.730469 445.261719 446.953125 445.539062 447.203125 445.792969 C 447.453125 446.046875 447.726562 446.273438 448.023438 446.472656 C 448.316406 446.675781 448.628906 446.84375 448.957031 446.984375 C 449.285156 447.125 449.621094 447.234375 449.972656 447.308594 C 450.320312 447.382812 450.671875 447.421875 451.03125 447.425781 L 532.109375 447.425781 C 532.464844 447.421875 532.820312 447.382812 533.167969 447.308594 C 533.515625 447.234375 533.855469 447.125 534.183594 446.984375 C 534.511719 446.84375 534.824219 446.675781 535.117188 446.472656 C 535.414062 446.273438 535.6875 446.046875 535.9375 445.792969 C 536.1875 445.539062 536.410156 445.261719 536.605469 444.964844 C 536.804688 444.664062 536.96875 444.351562 537.105469 444.023438 C 537.238281 443.691406 537.34375 443.351562 537.410156 443 C 537.480469 442.652344 537.515625 442.296875 537.515625 441.941406 C 537.515625 441.585938 537.480469 441.230469 537.410156 440.878906 C 537.34375 440.53125 537.238281 440.191406 537.105469 439.859375 C 536.96875 439.53125 536.804688 439.214844 536.605469 438.917969 C 536.410156 438.621094 536.1875 438.34375 535.9375 438.089844 C 535.6875 437.835938 535.414062 437.609375 535.117188 437.40625 C 534.824219 437.207031 534.511719 437.035156 534.183594 436.894531 C 533.855469 436.753906 533.515625 436.648438 533.167969 436.574219 C 532.820312 436.5 532.464844 436.460938 532.109375 436.457031 Z M 532.109375 436.457031 " fill-opacity="1" fill-rule="nonzero"/></g><path fill="#ffffff" d="M 429.089844 447.425781 C 429.445312 447.421875 429.796875 447.382812 430.148438 447.308594 C 430.496094 447.234375 430.835938 447.128906 431.164062 446.988281 C 431.492188 446.847656 431.804688 446.675781 432.097656 446.476562 C 432.394531 446.273438 432.667969 446.046875 432.917969 445.792969 C 433.167969 445.539062 433.390625 445.261719 433.589844 444.964844 C 433.785156 444.667969 433.953125 444.351562 434.085938 444.023438 C 434.222656 443.691406 434.324219 443.351562 434.394531 443 C 434.460938 442.652344 434.496094 442.296875 434.496094 441.941406 C 434.496094 441.582031 434.460938 441.230469 434.394531 440.878906 C 434.324219 440.53125 434.222656 440.191406 434.085938 439.859375 C 433.949219 439.527344 433.785156 439.214844 433.589844 438.917969 C 433.390625 438.621094 433.167969 438.34375 432.917969 438.089844 C 432.667969 437.835938 432.394531 437.605469 432.097656 437.40625 C 431.804688 437.207031 431.492188 437.035156 431.164062 436.894531 C 430.835938 436.753906 430.496094 436.648438 430.148438 436.574219 C 429.796875 436.5 429.445312 436.460938 429.085938 436.457031 L 415.433594 436.457031 C 415.074219 436.460938 414.722656 436.5 414.375 436.574219 C 414.023438 436.648438 413.6875 436.753906 413.355469 436.894531 C 413.027344 437.035156 412.71875 437.207031 412.421875 437.40625 C 412.128906 437.605469 411.855469 437.835938 411.605469 438.089844 C 411.351562 438.34375 411.128906 438.621094 410.933594 438.917969 C 410.734375 439.214844 410.570312 439.527344 410.433594 439.859375 C 410.296875 440.191406 410.195312 440.53125 410.128906 440.878906 C 410.058594 441.230469 410.023438 441.585938 410.023438 441.941406 C 410.023438 442.296875 410.058594 442.652344 410.128906 443 C 410.195312 443.351562 410.296875 443.691406 410.433594 444.023438 C 410.570312 444.351562 410.734375 444.667969 410.933594 444.964844 C 411.128906 445.261719 411.351562 445.539062 411.605469 445.792969 C 411.855469 446.046875 412.128906 446.273438 412.421875 446.476562 C 412.71875 446.675781 413.027344 446.847656 413.355469 446.988281 C 413.6875 447.128906 414.023438 447.234375 414.375 447.308594 C 414.722656 447.382812 415.074219 447.421875 415.433594 447.425781 Z M 429.089844 447.425781 " fill-opacity="1" fill-rule="nonzero"/></svg>